<?xml version="1.0" encoding="UTF-8" standalone="no"?><svg xmlns="http://www.w3.org/2000/svg" xmlns:xlink="http://www.w3.org/1999/xlink" contentScriptType="application/ecmascript" contentStyleType="text/css" height="547px" preserveAspectRatio="none" style="width:825px;height:547px;background:#FFFFFF;" version="1.1" viewBox="0 0 825 547" width="825px" zoomAndPan="magnify"><defs><filter height="300%" id="f108rzjuih23zt" width="300%" x="-1" y="-1"><feGaussianBlur result="blurOut" stdDeviation="1.0"/><feColorMatrix in="blurOut" result="blurOut2" type="matrix" values="0 0 0 0 0 0 0 0 0 0 0 0 0 0 0 0 0 0 .4 0"/><feOffset dx="2.0" dy="2.0" in="blurOut2" result="blurOut3"/><feBlend in="SourceGraphic" in2="blurOut3" mode="normal"/></filter></defs><g><!--MD5=[3fd616f346a44cd59a91eb10b19e157c]
class User--><rect codeLine="8" fill="#FEFECE" filter="url(#f108rzjuih23zt)" height="47.6719" id="User" style="stroke:#A80036;stroke-width:0.75;" width="33" x="312.9992" y="70.5"/><ellipse cx="322.0742" cy="78.5" fill="#ADD1B2" rx="5.5" ry="5.5" style="stroke:#A80036;stroke-width:0.5;"/><path d="M323.0742,76.75 Q323.1757,76.5 323.2929,76.375 Q323.4101,76.25 323.5429,76.25 Q323.7773,76.25 323.9257,76.3906 Q324.0742,76.5313 324.0742,76.8594 L324.0742,77.6406 Q324.0742,77.9688 323.9336,78.1094 Q323.7929,78.25 323.5742,78.25 Q323.3789,78.25 323.2539,78.1641 Q323.1289,78.0781 323.0742,77.8516 Q323.0507,77.6953 322.9648,77.6094 Q322.8086,77.4453 322.5273,77.3516 Q322.2461,77.25 321.9648,77.25 Q321.6132,77.25 321.3164,77.3906 Q321.0273,77.5313 320.8007,77.8438 Q320.5742,78.1563 320.5742,78.5859 L320.5742,79.0469 Q320.5742,79.5625 320.9961,79.9063 Q321.4179,80.25 322.1679,80.25 Q322.6132,80.25 322.9257,80.1484 Q323.1054,80.0938 323.3086,79.9141 Q323.4414,79.8125 323.5117,79.7813 Q323.582,79.75 323.6679,79.75 Q323.832,79.75 323.9492,79.8828 Q324.0742,80.0078 324.0742,80.1875 Q324.0742,80.3594 323.9023,80.5625 Q323.6523,80.8594 323.2539,81.0234 Q322.7304,81.25 322.0898,81.25 Q321.3398,81.25 320.7382,80.9531 Q320.2539,80.7188 319.9101,80.2109 Q319.5742,79.7031 319.5742,79.1016 L319.5742,78.5547 Q319.5742,77.9297 319.8711,77.3828 Q320.1757,76.8359 320.6992,76.5469 Q321.2304,76.25 321.8242,76.25 Q322.1836,76.25 322.4961,76.375 Q322.8086,76.5 323.0742,76.75 Z " fill="#000000"/><text fill="#000000" font-family="sans-serif" font-size="6" lengthAdjust="spacing" textLength="13.5" x="329.4242" y="80.9551">User</text><line style="stroke:#A80036;stroke-width:0.75;" x1="313.4992" x2="345.4992" y1="86.5" y2="86.5"/><text fill="#000000" font-family="sans-serif" font-size="5.5" lengthAdjust="spacing" textLength="15" x="315.9992" y="94.2095">-name</text><text fill="#000000" font-family="sans-serif" font-size="5.5" lengthAdjust="spacing" textLength="27" x="315.9992" y="101.1274">-password</text><text fill="#000000" font-family="sans-serif" font-size="5.5" lengthAdjust="spacing" textLength="14" x="315.9992" y="108.0454">-email</text><text fill="#000000" font-family="sans-serif" font-size="5.5" lengthAdjust="spacing" textLength="11" x="315.9992" y="114.9634">-role</text><!--MD5=[7421f545a0d8420c5bec41e74b387d9c]
class Employee--><rect codeLine="14" fill="#FEFECE" filter="url(#f108rzjuih23zt)" height="20" id="Employee" style="stroke:#A80036;stroke-width:0.75;" width="43.5" x="311.7492" y="157"/><ellipse cx="319.2492" cy="165" fill="#ADD1B2" rx="5.5" ry="5.5" style="stroke:#A80036;stroke-width:0.5;"/><path d="M320.2492,163.25 Q320.3507,163 320.4679,162.875 Q320.5851,162.75 320.7179,162.75 Q320.9523,162.75 321.1007,162.8906 Q321.2492,163.0313 321.2492,163.3594 L321.2492,164.1406 Q321.2492,164.4688 321.1086,164.6094 Q320.9679,164.75 320.7492,164.75 Q320.5539,164.75 320.4289,164.6641 Q320.3039,164.5781 320.2492,164.3516 Q320.2257,164.1953 320.1398,164.1094 Q319.9836,163.9453 319.7023,163.8516 Q319.4211,163.75 319.1398,163.75 Q318.7882,163.75 318.4914,163.8906 Q318.2023,164.0313 317.9757,164.3438 Q317.7492,164.6563 317.7492,165.0859 L317.7492,165.5469 Q317.7492,166.0625 318.1711,166.4063 Q318.5929,166.75 319.3429,166.75 Q319.7882,166.75 320.1007,166.6484 Q320.2804,166.5938 320.4836,166.4141 Q320.6164,166.3125 320.6867,166.2813 Q320.757,166.25 320.8429,166.25 Q321.007,166.25 321.1242,166.3828 Q321.2492,166.5078 321.2492,166.6875 Q321.2492,166.8594 321.0773,167.0625 Q320.8273,167.3594 320.4289,167.5234 Q319.9054,167.75 319.2648,167.75 Q318.5148,167.75 317.9132,167.4531 Q317.4289,167.2188 317.0851,166.7109 Q316.7492,166.2031 316.7492,165.6016 L316.7492,165.0547 Q316.7492,164.4297 317.0461,163.8828 Q317.3507,163.3359 317.8742,163.0469 Q318.4054,162.75 318.9992,162.75 Q319.3586,162.75 319.6711,162.875 Q319.9836,163 320.2492,163.25 Z " fill="#000000"/><text fill="#000000" font-family="sans-serif" font-size="6" lengthAdjust="spacing" textLength="27.5" x="326.2492" y="167.4551">Employee</text><line style="stroke:#A80036;stroke-width:0.75;" x1="312.2492" x2="354.7492" y1="173" y2="173"/><!--MD5=[bc9474904c93394f6b59770801b96c22]
class SNS User--><rect codeLine="23" fill="#FEFECE" filter="url(#f108rzjuih23zt)" height="33.8359" id="SNS User" style="stroke:#A80036;stroke-width:0.75;" width="50.5" x="603.7492" y="305.5"/><ellipse cx="614.3992" cy="313.5" fill="#ADD1B2" rx="5.5" ry="5.5" style="stroke:#A80036;stroke-width:0.5;"/><path d="M615.3992,311.75 Q615.5007,311.5 615.6179,311.375 Q615.7351,311.25 615.8679,311.25 Q616.1023,311.25 616.2507,311.3906 Q616.3992,311.5313 616.3992,311.8594 L616.3992,312.6406 Q616.3992,312.9688 616.2586,313.1094 Q616.1179,313.25 615.8992,313.25 Q615.7039,313.25 615.5789,313.1641 Q615.4539,313.0781 615.3992,312.8516 Q615.3757,312.6953 615.2898,312.6094 Q615.1336,312.4453 614.8523,312.3516 Q614.5711,312.25 614.2898,312.25 Q613.9382,312.25 613.6414,312.3906 Q613.3523,312.5313 613.1257,312.8438 Q612.8992,313.1563 612.8992,313.5859 L612.8992,314.0469 Q612.8992,314.5625 613.3211,314.9063 Q613.7429,315.25 614.4929,315.25 Q614.9382,315.25 615.2507,315.1484 Q615.4304,315.0938 615.6336,314.9141 Q615.7664,314.8125 615.8367,314.7813 Q615.907,314.75 615.9929,314.75 Q616.157,314.75 616.2742,314.8828 Q616.3992,315.0078 616.3992,315.1875 Q616.3992,315.3594 616.2273,315.5625 Q615.9773,315.8594 615.5789,316.0234 Q615.0554,316.25 614.4148,316.25 Q613.6648,316.25 613.0632,315.9531 Q612.5789,315.7188 612.2351,315.2109 Q611.8992,314.7031 611.8992,314.1016 L611.8992,313.5547 Q611.8992,312.9297 612.1961,312.3828 Q612.5007,311.8359 613.0242,311.5469 Q613.5554,311.25 614.1492,311.25 Q614.5086,311.25 614.8211,311.375 Q615.1336,311.5 615.3992,311.75 Z " fill="#000000"/><text fill="#000000" font-family="sans-serif" font-size="6" lengthAdjust="spacing" textLength="27.5" x="622.0992" y="315.9551">SNS User</text><line style="stroke:#A80036;stroke-width:0.75;" x1="604.2492" x2="653.7492" y1="321.5" y2="321.5"/><text fill="#000000" font-family="sans-serif" font-size="5.5" lengthAdjust="spacing" textLength="44.5" x="606.7492" y="329.2095">-SNS user number</text><text fill="#000000" font-family="sans-serif" font-size="5.5" lengthAdjust="spacing" textLength="37" x="606.7492" y="336.1274">-mobile Contact</text><!--MD5=[3737067ad7376ca30b35d619e90d21e0]
class Vaccine Certificate--><rect codeLine="27" fill="#FEFECE" filter="url(#f108rzjuih23zt)" height="20" id="Vaccine Certificate" style="stroke:#A80036;stroke-width:0.75;" width="66.5" x="603.7492" y="419.75"/><ellipse cx="611.2492" cy="427.75" fill="#ADD1B2" rx="5.5" ry="5.5" style="stroke:#A80036;stroke-width:0.5;"/><path d="M612.2492,426 Q612.3507,425.75 612.4679,425.625 Q612.5851,425.5 612.7179,425.5 Q612.9523,425.5 613.1007,425.6406 Q613.2492,425.7813 613.2492,426.1094 L613.2492,426.8906 Q613.2492,427.2188 613.1086,427.3594 Q612.9679,427.5 612.7492,427.5 Q612.5539,427.5 612.4289,427.4141 Q612.3039,427.3281 612.2492,427.1016 Q612.2257,426.9453 612.1398,426.8594 Q611.9836,426.6953 611.7023,426.6016 Q611.4211,426.5 611.1398,426.5 Q610.7882,426.5 610.4914,426.6406 Q610.2023,426.7813 609.9757,427.0938 Q609.7492,427.4063 609.7492,427.8359 L609.7492,428.2969 Q609.7492,428.8125 610.1711,429.1563 Q610.5929,429.5 611.3429,429.5 Q611.7882,429.5 612.1007,429.3984 Q612.2804,429.3438 612.4836,429.1641 Q612.6164,429.0625 612.6867,429.0313 Q612.757,429 612.8429,429 Q613.007,429 613.1242,429.1328 Q613.2492,429.2578 613.2492,429.4375 Q613.2492,429.6094 613.0773,429.8125 Q612.8273,430.1094 612.4289,430.2734 Q611.9054,430.5 611.2648,430.5 Q610.5148,430.5 609.9132,430.2031 Q609.4289,429.9688 609.0851,429.4609 Q608.7492,428.9531 608.7492,428.3516 L608.7492,427.8047 Q608.7492,427.1797 609.0461,426.6328 Q609.3507,426.0859 609.8742,425.7969 Q610.4054,425.5 610.9992,425.5 Q611.3586,425.5 611.6711,425.625 Q611.9836,425.75 612.2492,426 Z " fill="#000000"/><text fill="#000000" font-family="sans-serif" font-size="6" lengthAdjust="spacing" textLength="50.5" x="618.2492" y="430.2051">Vaccine Certificate</text><line style="stroke:#A80036;stroke-width:0.75;" x1="604.2492" x2="669.7492" y1="435.75" y2="435.75"/><!--MD5=[11a162f056b57a34a43ad15601792ce1]
class Health Records--><rect codeLine="29" fill="#FEFECE" filter="url(#f108rzjuih23zt)" height="40.7539" id="Health Records" style="stroke:#A80036;stroke-width:0.75;" width="59" x="687.9992" y="409.25"/><ellipse cx="695.4992" cy="417.25" fill="#ADD1B2" rx="5.5" ry="5.5" style="stroke:#A80036;stroke-width:0.5;"/><path d="M696.4992,415.5 Q696.6007,415.25 696.7179,415.125 Q696.8351,415 696.9679,415 Q697.2023,415 697.3507,415.1406 Q697.4992,415.2813 697.4992,415.6094 L697.4992,416.3906 Q697.4992,416.7188 697.3586,416.8594 Q697.2179,417 696.9992,417 Q696.8039,417 696.6789,416.9141 Q696.5539,416.8281 696.4992,416.6016 Q696.4757,416.4453 696.3898,416.3594 Q696.2336,416.1953 695.9523,416.1016 Q695.6711,416 695.3898,416 Q695.0382,416 694.7414,416.1406 Q694.4523,416.2813 694.2257,416.5938 Q693.9992,416.9063 693.9992,417.3359 L693.9992,417.7969 Q693.9992,418.3125 694.4211,418.6563 Q694.8429,419 695.5929,419 Q696.0382,419 696.3507,418.8984 Q696.5304,418.8438 696.7336,418.6641 Q696.8664,418.5625 696.9367,418.5313 Q697.007,418.5 697.0929,418.5 Q697.257,418.5 697.3742,418.6328 Q697.4992,418.7578 697.4992,418.9375 Q697.4992,419.1094 697.3273,419.3125 Q697.0773,419.6094 696.6789,419.7734 Q696.1554,420 695.5148,420 Q694.7648,420 694.1632,419.7031 Q693.6789,419.4688 693.3351,418.9609 Q692.9992,418.4531 692.9992,417.8516 L692.9992,417.3047 Q692.9992,416.6797 693.2961,416.1328 Q693.6007,415.5859 694.1242,415.2969 Q694.6554,415 695.2492,415 Q695.6086,415 695.9211,415.125 Q696.2336,415.25 696.4992,415.5 Z " fill="#000000"/><text fill="#000000" font-family="sans-serif" font-size="6" lengthAdjust="spacing" textLength="43" x="702.4992" y="419.7051">Health Records</text><line style="stroke:#A80036;stroke-width:0.75;" x1="688.4992" x2="746.4992" y1="425.25" y2="425.25"/><text fill="#000000" font-family="sans-serif" font-size="5.5" lengthAdjust="spacing" textLength="47.5" x="690.9992" y="432.9595">-vaccination history</text><text fill="#000000" font-family="sans-serif" font-size="5.5" lengthAdjust="spacing" textLength="39.5" x="690.9992" y="439.8774">-health condition</text><text fill="#000000" font-family="sans-serif" font-size="5.5" lengthAdjust="spacing" textLength="46" x="690.9992" y="446.7954">-adverse reactions</text><!--MD5=[a059576e163b46f56762f12600c49258]
class Nurse--><rect codeLine="44" fill="#FEFECE" filter="url(#f108rzjuih23zt)" height="20" id="Nurse" style="stroke:#A80036;stroke-width:0.75;" width="33" x="261.4992" y="218"/><ellipse cx="268.9992" cy="226" fill="#ADD1B2" rx="5.5" ry="5.5" style="stroke:#A80036;stroke-width:0.5;"/><path d="M269.9992,224.25 Q270.1007,224 270.2179,223.875 Q270.3351,223.75 270.4679,223.75 Q270.7023,223.75 270.8507,223.8906 Q270.9992,224.0313 270.9992,224.3594 L270.9992,225.1406 Q270.9992,225.4688 270.8586,225.6094 Q270.7179,225.75 270.4992,225.75 Q270.3039,225.75 270.1789,225.6641 Q270.0539,225.5781 269.9992,225.3516 Q269.9757,225.1953 269.8898,225.1094 Q269.7336,224.9453 269.4523,224.8516 Q269.1711,224.75 268.8898,224.75 Q268.5382,224.75 268.2414,224.8906 Q267.9523,225.0313 267.7257,225.3438 Q267.4992,225.6563 267.4992,226.0859 L267.4992,226.5469 Q267.4992,227.0625 267.9211,227.4063 Q268.3429,227.75 269.0929,227.75 Q269.5382,227.75 269.8507,227.6484 Q270.0304,227.5938 270.2336,227.4141 Q270.3664,227.3125 270.4367,227.2813 Q270.507,227.25 270.5929,227.25 Q270.757,227.25 270.8742,227.3828 Q270.9992,227.5078 270.9992,227.6875 Q270.9992,227.8594 270.8273,228.0625 Q270.5773,228.3594 270.1789,228.5234 Q269.6554,228.75 269.0148,228.75 Q268.2648,228.75 267.6632,228.4531 Q267.1789,228.2188 266.8351,227.7109 Q266.4992,227.2031 266.4992,226.6016 L266.4992,226.0547 Q266.4992,225.4297 266.7961,224.8828 Q267.1007,224.3359 267.6242,224.0469 Q268.1554,223.75 268.7492,223.75 Q269.1086,223.75 269.4211,223.875 Q269.7336,224 269.9992,224.25 Z " fill="#000000"/><text fill="#000000" font-family="sans-serif" font-size="6" lengthAdjust="spacing" textLength="17" x="275.9992" y="228.4551">Nurse</text><line style="stroke:#A80036;stroke-width:0.75;" x1="261.9992" x2="293.9992" y1="234" y2="234"/><!--MD5=[da547346deef918ea16944ba046651ef]
class Administrator--><rect codeLine="46" fill="#FEFECE" filter="url(#f108rzjuih23zt)" height="20" id="Administrator" style="stroke:#A80036;stroke-width:0.75;" width="52.5" x="191.2492" y="218"/><ellipse cx="198.7492" cy="226" fill="#ADD1B2" rx="5.5" ry="5.5" style="stroke:#A80036;stroke-width:0.5;"/><path d="M199.7492,224.25 Q199.8507,224 199.9679,223.875 Q200.0851,223.75 200.2179,223.75 Q200.4523,223.75 200.6007,223.8906 Q200.7492,224.0313 200.7492,224.3594 L200.7492,225.1406 Q200.7492,225.4688 200.6086,225.6094 Q200.4679,225.75 200.2492,225.75 Q200.0539,225.75 199.9289,225.6641 Q199.8039,225.5781 199.7492,225.3516 Q199.7257,225.1953 199.6398,225.1094 Q199.4836,224.9453 199.2023,224.8516 Q198.9211,224.75 198.6398,224.75 Q198.2882,224.75 197.9914,224.8906 Q197.7023,225.0313 197.4757,225.3438 Q197.2492,225.6563 197.2492,226.0859 L197.2492,226.5469 Q197.2492,227.0625 197.6711,227.4063 Q198.0929,227.75 198.8429,227.75 Q199.2882,227.75 199.6007,227.6484 Q199.7804,227.5938 199.9836,227.4141 Q200.1164,227.3125 200.1867,227.2813 Q200.257,227.25 200.3429,227.25 Q200.507,227.25 200.6242,227.3828 Q200.7492,227.5078 200.7492,227.6875 Q200.7492,227.8594 200.5773,228.0625 Q200.3273,228.3594 199.9289,228.5234 Q199.4054,228.75 198.7648,228.75 Q198.0148,228.75 197.4132,228.4531 Q196.9289,228.2188 196.5851,227.7109 Q196.2492,227.2031 196.2492,226.6016 L196.2492,226.0547 Q196.2492,225.4297 196.5461,224.8828 Q196.8507,224.3359 197.3742,224.0469 Q197.9054,223.75 198.4992,223.75 Q198.8586,223.75 199.1711,223.875 Q199.4836,224 199.7492,224.25 Z " fill="#000000"/><text fill="#000000" font-family="sans-serif" font-size="6" lengthAdjust="spacing" textLength="36.5" x="205.7492" y="228.4551">Administrator</text><line style="stroke:#A80036;stroke-width:0.75;" x1="191.7492" x2="243.2492" y1="234" y2="234"/><!--MD5=[6b3cf6c4f982489e96d99caefd979ec9]
class Center Coordinator--><rect codeLine="57" fill="#FEFECE" filter="url(#f108rzjuih23zt)" height="20" id="Center Coordinator" style="stroke:#A80036;stroke-width:0.75;" width="68.5" x="347.2492" y="218"/><ellipse cx="354.7492" cy="226" fill="#ADD1B2" rx="5.5" ry="5.5" style="stroke:#A80036;stroke-width:0.5;"/><path d="M355.7492,224.25 Q355.8507,224 355.9679,223.875 Q356.0851,223.75 356.2179,223.75 Q356.4523,223.75 356.6007,223.8906 Q356.7492,224.0313 356.7492,224.3594 L356.7492,225.1406 Q356.7492,225.4688 356.6086,225.6094 Q356.4679,225.75 356.2492,225.75 Q356.0539,225.75 355.9289,225.6641 Q355.8039,225.5781 355.7492,225.3516 Q355.7257,225.1953 355.6398,225.1094 Q355.4836,224.9453 355.2023,224.8516 Q354.9211,224.75 354.6398,224.75 Q354.2882,224.75 353.9914,224.8906 Q353.7023,225.0313 353.4757,225.3438 Q353.2492,225.6563 353.2492,226.0859 L353.2492,226.5469 Q353.2492,227.0625 353.6711,227.4063 Q354.0929,227.75 354.8429,227.75 Q355.2882,227.75 355.6007,227.6484 Q355.7804,227.5938 355.9836,227.4141 Q356.1164,227.3125 356.1867,227.2813 Q356.257,227.25 356.3429,227.25 Q356.507,227.25 356.6242,227.3828 Q356.7492,227.5078 356.7492,227.6875 Q356.7492,227.8594 356.5773,228.0625 Q356.3273,228.3594 355.9289,228.5234 Q355.4054,228.75 354.7648,228.75 Q354.0148,228.75 353.4132,228.4531 Q352.9289,228.2188 352.5851,227.7109 Q352.2492,227.2031 352.2492,226.6016 L352.2492,226.0547 Q352.2492,225.4297 352.5461,224.8828 Q352.8507,224.3359 353.3742,224.0469 Q353.9054,223.75 354.4992,223.75 Q354.8586,223.75 355.1711,223.875 Q355.4836,224 355.7492,224.25 Z " fill="#000000"/><text fill="#000000" font-family="sans-serif" font-size="6" lengthAdjust="spacing" textLength="52.5" x="361.7492" y="228.4551">Center Coordinator</text><line style="stroke:#A80036;stroke-width:0.75;" x1="347.7492" x2="415.2492" y1="234" y2="234"/><!--MD5=[fee6f4a72d04f14178f16c15b193a793]
class Vaccination Center--><rect codeLine="59" fill="#FEFECE" filter="url(#f108rzjuih23zt)" height="89.1797" id="Vaccination Center" style="stroke:#A80036;stroke-width:0.75;" width="99" x="333.9992" y="278"/><ellipse cx="355.6742" cy="286" fill="#ADD1B2" rx="5.5" ry="5.5" style="stroke:#A80036;stroke-width:0.5;"/><path d="M356.6742,284.25 Q356.7757,284 356.8929,283.875 Q357.0101,283.75 357.1429,283.75 Q357.3773,283.75 357.5257,283.8906 Q357.6742,284.0313 357.6742,284.3594 L357.6742,285.1406 Q357.6742,285.4688 357.5336,285.6094 Q357.3929,285.75 357.1742,285.75 Q356.9789,285.75 356.8539,285.6641 Q356.7289,285.5781 356.6742,285.3516 Q356.6507,285.1953 356.5648,285.1094 Q356.4086,284.9453 356.1273,284.8516 Q355.8461,284.75 355.5648,284.75 Q355.2132,284.75 354.9164,284.8906 Q354.6273,285.0313 354.4007,285.3438 Q354.1742,285.6563 354.1742,286.0859 L354.1742,286.5469 Q354.1742,287.0625 354.5961,287.4063 Q355.0179,287.75 355.7679,287.75 Q356.2132,287.75 356.5257,287.6484 Q356.7054,287.5938 356.9086,287.4141 Q357.0414,287.3125 357.1117,287.2813 Q357.182,287.25 357.2679,287.25 Q357.432,287.25 357.5492,287.3828 Q357.6742,287.5078 357.6742,287.6875 Q357.6742,287.8594 357.5023,288.0625 Q357.2523,288.3594 356.8539,288.5234 Q356.3304,288.75 355.6898,288.75 Q354.9398,288.75 354.3382,288.4531 Q353.8539,288.2188 353.5101,287.7109 Q353.1742,287.2031 353.1742,286.6016 L353.1742,286.0547 Q353.1742,285.4297 353.4711,284.8828 Q353.7757,284.3359 354.2992,284.0469 Q354.8304,283.75 355.4242,283.75 Q355.7836,283.75 356.0961,283.875 Q356.4086,284 356.6742,284.25 Z " fill="#000000"/><text fill="#000000" font-family="sans-serif" font-size="6" lengthAdjust="spacing" textLength="51.5" x="365.8242" y="288.4551">Vaccination Center</text><line style="stroke:#A80036;stroke-width:0.75;" x1="334.4992" x2="432.4992" y1="294" y2="294"/><text fill="#000000" font-family="sans-serif" font-size="5.5" lengthAdjust="spacing" textLength="15" x="336.9992" y="301.7095">-name</text><text fill="#000000" font-family="sans-serif" font-size="5.5" lengthAdjust="spacing" textLength="22" x="336.9992" y="308.6274">-address</text><text fill="#000000" font-family="sans-serif" font-size="5.5" lengthAdjust="spacing" textLength="36.5" x="336.9992" y="315.5454">-phone number</text><text fill="#000000" font-family="sans-serif" font-size="5.5" lengthAdjust="spacing" textLength="35.5" x="336.9992" y="322.4634">-email address</text><text fill="#000000" font-family="sans-serif" font-size="5.5" lengthAdjust="spacing" textLength="29.5" x="336.9992" y="329.3813">-fax number</text><text fill="#000000" font-family="sans-serif" font-size="5.5" lengthAdjust="spacing" textLength="43" x="336.9992" y="336.2993">-website address</text><text fill="#000000" font-family="sans-serif" font-size="5.5" lengthAdjust="spacing" textLength="59.5" x="336.9992" y="343.2173">-Open and closing hours</text><text fill="#000000" font-family="sans-serif" font-size="5.5" lengthAdjust="spacing" textLength="32" x="336.9992" y="350.1353">-Slot duration</text><text fill="#000000" font-family="sans-serif" font-size="5.5" lengthAdjust="spacing" textLength="93" x="336.9992" y="357.0532">-maximum number of vaccines per slot</text><text fill="#000000" font-family="sans-serif" font-size="5.5" lengthAdjust="spacing" textLength="28.5" x="336.9992" y="363.9712">+waiting list</text><!--MD5=[d3286694d818abd55d38367a0d182834]
class Healthcare Center--><rect codeLine="72" fill="#FEFECE" filter="url(#f108rzjuih23zt)" height="33.8359" id="Healthcare Center" style="stroke:#A80036;stroke-width:0.75;" width="66" x="333.9992" y="412.75"/><ellipse cx="341.4992" cy="420.75" fill="#ADD1B2" rx="5.5" ry="5.5" style="stroke:#A80036;stroke-width:0.5;"/><path d="M342.4992,419 Q342.6007,418.75 342.7179,418.625 Q342.8351,418.5 342.9679,418.5 Q343.2023,418.5 343.3507,418.6406 Q343.4992,418.7813 343.4992,419.1094 L343.4992,419.8906 Q343.4992,420.2188 343.3586,420.3594 Q343.2179,420.5 342.9992,420.5 Q342.8039,420.5 342.6789,420.4141 Q342.5539,420.3281 342.4992,420.1016 Q342.4757,419.9453 342.3898,419.8594 Q342.2336,419.6953 341.9523,419.6016 Q341.6711,419.5 341.3898,419.5 Q341.0382,419.5 340.7414,419.6406 Q340.4523,419.7813 340.2257,420.0938 Q339.9992,420.4063 339.9992,420.8359 L339.9992,421.2969 Q339.9992,421.8125 340.4211,422.1563 Q340.8429,422.5 341.5929,422.5 Q342.0382,422.5 342.3507,422.3984 Q342.5304,422.3438 342.7336,422.1641 Q342.8664,422.0625 342.9367,422.0313 Q343.007,422 343.0929,422 Q343.257,422 343.3742,422.1328 Q343.4992,422.2578 343.4992,422.4375 Q343.4992,422.6094 343.3273,422.8125 Q343.0773,423.1094 342.6789,423.2734 Q342.1554,423.5 341.5148,423.5 Q340.7648,423.5 340.1632,423.2031 Q339.6789,422.9688 339.3351,422.4609 Q338.9992,421.9531 338.9992,421.3516 L338.9992,420.8047 Q338.9992,420.1797 339.2961,419.6328 Q339.6007,419.0859 340.1242,418.7969 Q340.6554,418.5 341.2492,418.5 Q341.6086,418.5 341.9211,418.625 Q342.2336,418.75 342.4992,419 Z " fill="#000000"/><text fill="#000000" font-family="sans-serif" font-size="6" lengthAdjust="spacing" textLength="50" x="348.4992" y="423.2051">Healthcare Center</text><line style="stroke:#A80036;stroke-width:0.75;" x1="334.4992" x2="399.4992" y1="428.75" y2="428.75"/><text fill="#000000" font-family="sans-serif" font-size="5.5" lengthAdjust="spacing" textLength="42.5" x="336.9992" y="436.4595">-ARS Designation</text><text fill="#000000" font-family="sans-serif" font-size="5.5" lengthAdjust="spacing" textLength="46" x="336.9992" y="443.3774">-AGES Designation</text><!--MD5=[964fb90547a8a75e9972759fdfb4dae6]
class Mass Vaccination Center--><rect codeLine="77" fill="#FEFECE" filter="url(#f108rzjuih23zt)" height="20" id="Mass Vaccination Center" style="stroke:#A80036;stroke-width:0.75;" width="84" x="417.4992" y="419.75"/><ellipse cx="424.9992" cy="427.75" fill="#ADD1B2" rx="5.5" ry="5.5" style="stroke:#A80036;stroke-width:0.5;"/><path d="M425.9992,426 Q426.1007,425.75 426.2179,425.625 Q426.3351,425.5 426.4679,425.5 Q426.7023,425.5 426.8507,425.6406 Q426.9992,425.7813 426.9992,426.1094 L426.9992,426.8906 Q426.9992,427.2188 426.8586,427.3594 Q426.7179,427.5 426.4992,427.5 Q426.3039,427.5 426.1789,427.4141 Q426.0539,427.3281 425.9992,427.1016 Q425.9757,426.9453 425.8898,426.8594 Q425.7336,426.6953 425.4523,426.6016 Q425.1711,426.5 424.8898,426.5 Q424.5382,426.5 424.2414,426.6406 Q423.9523,426.7813 423.7257,427.0938 Q423.4992,427.4063 423.4992,427.8359 L423.4992,428.2969 Q423.4992,428.8125 423.9211,429.1563 Q424.3429,429.5 425.0929,429.5 Q425.5382,429.5 425.8507,429.3984 Q426.0304,429.3438 426.2336,429.1641 Q426.3664,429.0625 426.4367,429.0313 Q426.507,429 426.5929,429 Q426.757,429 426.8742,429.1328 Q426.9992,429.2578 426.9992,429.4375 Q426.9992,429.6094 426.8273,429.8125 Q426.5773,430.1094 426.1789,430.2734 Q425.6554,430.5 425.0148,430.5 Q424.2648,430.5 423.6632,430.2031 Q423.1789,429.9688 422.8351,429.4609 Q422.4992,428.9531 422.4992,428.3516 L422.4992,427.8047 Q422.4992,427.1797 422.7961,426.6328 Q423.1007,426.0859 423.6242,425.7969 Q424.1554,425.5 424.7492,425.5 Q425.1086,425.5 425.4211,425.625 Q425.7336,425.75 425.9992,426 Z " fill="#000000"/><text fill="#000000" font-family="sans-serif" font-size="6" lengthAdjust="spacing" textLength="68" x="431.9992" y="430.2051">Mass Vaccination Center</text><line style="stroke:#A80036;stroke-width:0.75;" x1="417.9992" x2="500.9992" y1="435.75" y2="435.75"/><!--MD5=[2c41678a9b0d95814b4caa0efea8bc7c]
class Administration Process--><rect codeLine="84" fill="#FEFECE" filter="url(#f108rzjuih23zt)" height="47.6719" id="Administration Process" style="stroke:#A80036;stroke-width:0.75;" width="92" x="135.9992" y="298.75"/><ellipse cx="148.8992" cy="306.75" fill="#ADD1B2" rx="5.5" ry="5.5" style="stroke:#A80036;stroke-width:0.5;"/><path d="M149.8992,305 Q150.0007,304.75 150.1179,304.625 Q150.2351,304.5 150.3679,304.5 Q150.6023,304.5 150.7507,304.6406 Q150.8992,304.7813 150.8992,305.1094 L150.8992,305.8906 Q150.8992,306.2188 150.7586,306.3594 Q150.6179,306.5 150.3992,306.5 Q150.2039,306.5 150.0789,306.4141 Q149.9539,306.3281 149.8992,306.1016 Q149.8757,305.9453 149.7898,305.8594 Q149.6336,305.6953 149.3523,305.6016 Q149.0711,305.5 148.7898,305.5 Q148.4382,305.5 148.1414,305.6406 Q147.8523,305.7813 147.6257,306.0938 Q147.3992,306.4063 147.3992,306.8359 L147.3992,307.2969 Q147.3992,307.8125 147.8211,308.1563 Q148.2429,308.5 148.9929,308.5 Q149.4382,308.5 149.7507,308.3984 Q149.9304,308.3438 150.1336,308.1641 Q150.2664,308.0625 150.3367,308.0313 Q150.407,308 150.4929,308 Q150.657,308 150.7742,308.1328 Q150.8992,308.2578 150.8992,308.4375 Q150.8992,308.6094 150.7273,308.8125 Q150.4773,309.1094 150.0789,309.2734 Q149.5554,309.5 148.9148,309.5 Q148.1648,309.5 147.5632,309.2031 Q147.0789,308.9688 146.7351,308.4609 Q146.3992,307.9531 146.3992,307.3516 L146.3992,306.8047 Q146.3992,306.1797 146.6961,305.6328 Q147.0007,305.0859 147.5242,304.7969 Q148.0554,304.5 148.6492,304.5 Q149.0086,304.5 149.3211,304.625 Q149.6336,304.75 149.8992,305 Z " fill="#000000"/><text fill="#000000" font-family="sans-serif" font-size="6" lengthAdjust="spacing" textLength="64" x="157.0992" y="309.2051">Administration Process</text><line style="stroke:#A80036;stroke-width:0.75;" x1="136.4992" x2="227.4992" y1="314.75" y2="314.75"/><text fill="#000000" font-family="sans-serif" font-size="5.5" lengthAdjust="spacing" textLength="26.5" x="138.9992" y="322.4595">-age group</text><text fill="#000000" font-family="sans-serif" font-size="5.5" lengthAdjust="spacing" textLength="86" x="138.9992" y="329.3774">-doses administrated per age group</text><text fill="#000000" font-family="sans-serif" font-size="5.5" lengthAdjust="spacing" textLength="40.5" x="138.9992" y="336.2954">-vaccine dosage</text><text fill="#000000" font-family="sans-serif" font-size="5.5" lengthAdjust="spacing" textLength="33.5" x="138.9992" y="343.2134">-time intervals</text><!--MD5=[19e445fc4d3b48519cbe33da05496394]
class Vaccine--><rect codeLine="91" fill="#FEFECE" filter="url(#f108rzjuih23zt)" height="33.8359" id="Vaccine" style="stroke:#A80036;stroke-width:0.75;" width="37.5" x="142.7492" y="412.75"/><ellipse cx="150.2492" cy="420.75" fill="#ADD1B2" rx="5.5" ry="5.5" style="stroke:#A80036;stroke-width:0.5;"/><path d="M151.2492,419 Q151.3507,418.75 151.4679,418.625 Q151.5851,418.5 151.7179,418.5 Q151.9523,418.5 152.1007,418.6406 Q152.2492,418.7813 152.2492,419.1094 L152.2492,419.8906 Q152.2492,420.2188 152.1086,420.3594 Q151.9679,420.5 151.7492,420.5 Q151.5539,420.5 151.4289,420.4141 Q151.3039,420.3281 151.2492,420.1016 Q151.2257,419.9453 151.1398,419.8594 Q150.9836,419.6953 150.7023,419.6016 Q150.4211,419.5 150.1398,419.5 Q149.7882,419.5 149.4914,419.6406 Q149.2023,419.7813 148.9757,420.0938 Q148.7492,420.4063 148.7492,420.8359 L148.7492,421.2969 Q148.7492,421.8125 149.1711,422.1563 Q149.5929,422.5 150.3429,422.5 Q150.7882,422.5 151.1007,422.3984 Q151.2804,422.3438 151.4836,422.1641 Q151.6164,422.0625 151.6867,422.0313 Q151.757,422 151.8429,422 Q152.007,422 152.1242,422.1328 Q152.2492,422.2578 152.2492,422.4375 Q152.2492,422.6094 152.0773,422.8125 Q151.8273,423.1094 151.4289,423.2734 Q150.9054,423.5 150.2648,423.5 Q149.5148,423.5 148.9132,423.2031 Q148.4289,422.9688 148.0851,422.4609 Q147.7492,421.9531 147.7492,421.3516 L147.7492,420.8047 Q147.7492,420.1797 148.0461,419.6328 Q148.3507,419.0859 148.8742,418.7969 Q149.4054,418.5 149.9992,418.5 Q150.3586,418.5 150.6711,418.625 Q150.9836,418.75 151.2492,419 Z " fill="#000000"/><text fill="#000000" font-family="sans-serif" font-size="6" lengthAdjust="spacing" textLength="21.5" x="157.2492" y="423.2051">Vaccine</text><line style="stroke:#A80036;stroke-width:0.75;" x1="143.2492" x2="179.7492" y1="428.75" y2="428.75"/><text fill="#000000" font-family="sans-serif" font-size="5.5" lengthAdjust="spacing" textLength="29.5" x="145.7492" y="436.4595">-designation</text><text fill="#000000" font-family="sans-serif" font-size="5.5" lengthAdjust="spacing" textLength="27" x="145.7492" y="443.3774">-lot number</text><!--MD5=[03960189e81aa2c066c762ffabbee709]
class Receptionist--><rect codeLine="39" fill="#FEFECE" filter="url(#f108rzjuih23zt)" height="20" id="Receptionist" style="stroke:#A80036;stroke-width:0.75;" width="50.5" x="517.7492" y="218"/><ellipse cx="525.2492" cy="226" fill="#ADD1B2" rx="5.5" ry="5.5" style="stroke:#A80036;stroke-width:0.5;"/><path d="M526.2492,224.25 Q526.3507,224 526.4679,223.875 Q526.5851,223.75 526.7179,223.75 Q526.9523,223.75 527.1007,223.8906 Q527.2492,224.0313 527.2492,224.3594 L527.2492,225.1406 Q527.2492,225.4688 527.1086,225.6094 Q526.9679,225.75 526.7492,225.75 Q526.5539,225.75 526.4289,225.6641 Q526.3039,225.5781 526.2492,225.3516 Q526.2257,225.1953 526.1398,225.1094 Q525.9836,224.9453 525.7023,224.8516 Q525.4211,224.75 525.1398,224.75 Q524.7882,224.75 524.4914,224.8906 Q524.2023,225.0313 523.9757,225.3438 Q523.7492,225.6563 523.7492,226.0859 L523.7492,226.5469 Q523.7492,227.0625 524.1711,227.4063 Q524.5929,227.75 525.3429,227.75 Q525.7882,227.75 526.1007,227.6484 Q526.2804,227.5938 526.4836,227.4141 Q526.6164,227.3125 526.6867,227.2813 Q526.757,227.25 526.8429,227.25 Q527.007,227.25 527.1242,227.3828 Q527.2492,227.5078 527.2492,227.6875 Q527.2492,227.8594 527.0773,228.0625 Q526.8273,228.3594 526.4289,228.5234 Q525.9054,228.75 525.2648,228.75 Q524.5148,228.75 523.9132,228.4531 Q523.4289,228.2188 523.0851,227.7109 Q522.7492,227.2031 522.7492,226.6016 L522.7492,226.0547 Q522.7492,225.4297 523.0461,224.8828 Q523.3507,224.3359 523.8742,224.0469 Q524.4054,223.75 524.9992,223.75 Q525.3586,223.75 525.6711,223.875 Q525.9836,224 526.2492,224.25 Z " fill="#000000"/><text fill="#000000" font-family="sans-serif" font-size="6" lengthAdjust="spacing" textLength="34.5" x="532.2492" y="228.4551">Receptionist</text><line style="stroke:#A80036;stroke-width:0.75;" x1="518.2492" x2="567.7492" y1="234" y2="234"/><!--MD5=[02e4b9b7573f1156f41e60aa5b4e25a4]
class Company--><rect codeLine="51" fill="#FEFECE" filter="url(#f108rzjuih23zt)" height="26.918" id="Company" style="stroke:#A80036;stroke-width:0.75;" width="42.5" x="165.7492" y="3.5"/><ellipse cx="173.2492" cy="11.5" fill="#ADD1B2" rx="5.5" ry="5.5" style="stroke:#A80036;stroke-width:0.5;"/><path d="M174.2492,9.75 Q174.3507,9.5 174.4679,9.375 Q174.5851,9.25 174.7179,9.25 Q174.9523,9.25 175.1007,9.3906 Q175.2492,9.5313 175.2492,9.8594 L175.2492,10.6406 Q175.2492,10.9688 175.1086,11.1094 Q174.9679,11.25 174.7492,11.25 Q174.5539,11.25 174.4289,11.1641 Q174.3039,11.0781 174.2492,10.8516 Q174.2257,10.6953 174.1398,10.6094 Q173.9836,10.4453 173.7023,10.3516 Q173.4211,10.25 173.1398,10.25 Q172.7882,10.25 172.4914,10.3906 Q172.2023,10.5313 171.9757,10.8438 Q171.7492,11.1563 171.7492,11.5859 L171.7492,12.0469 Q171.7492,12.5625 172.1711,12.9063 Q172.5929,13.25 173.3429,13.25 Q173.7882,13.25 174.1007,13.1484 Q174.2804,13.0938 174.4836,12.9141 Q174.6164,12.8125 174.6867,12.7813 Q174.757,12.75 174.8429,12.75 Q175.007,12.75 175.1242,12.8828 Q175.2492,13.0078 175.2492,13.1875 Q175.2492,13.3594 175.0773,13.5625 Q174.8273,13.8594 174.4289,14.0234 Q173.9054,14.25 173.2648,14.25 Q172.5148,14.25 171.9132,13.9531 Q171.4289,13.7188 171.0851,13.2109 Q170.7492,12.7031 170.7492,12.1016 L170.7492,11.5547 Q170.7492,10.9297 171.0461,10.3828 Q171.3507,9.8359 171.8742,9.5469 Q172.4054,9.25 172.9992,9.25 Q173.3586,9.25 173.6711,9.375 Q173.9836,9.5 174.2492,9.75 Z " fill="#000000"/><text fill="#000000" font-family="sans-serif" font-size="6" lengthAdjust="spacing" textLength="26.5" x="180.2492" y="13.9551">Company</text><line style="stroke:#A80036;stroke-width:0.75;" x1="166.2492" x2="207.7492" y1="19.5" y2="19.5"/><text fill="#000000" font-family="sans-serif" font-size="5.5" lengthAdjust="spacing" textLength="30" x="168.7492" y="27.2095">-Designation</text><!--MD5=[c1198bd87106b75dbb269f53da054b90]
class Vaccine Type--><rect codeLine="98" fill="#FEFECE" filter="url(#f108rzjuih23zt)" height="26.918" id="Vaccine Type" style="stroke:#A80036;stroke-width:0.75;" width="52" x="54.9992" y="502.75"/><ellipse cx="62.4992" cy="510.75" fill="#ADD1B2" rx="5.5" ry="5.5" style="stroke:#A80036;stroke-width:0.5;"/><path d="M63.4992,509 Q63.6007,508.75 63.7179,508.625 Q63.8351,508.5 63.9679,508.5 Q64.2023,508.5 64.3507,508.6406 Q64.4992,508.7813 64.4992,509.1094 L64.4992,509.8906 Q64.4992,510.2188 64.3586,510.3594 Q64.2179,510.5 63.9992,510.5 Q63.8039,510.5 63.6789,510.4141 Q63.5539,510.3281 63.4992,510.1016 Q63.4757,509.9453 63.3898,509.8594 Q63.2336,509.6953 62.9523,509.6016 Q62.6711,509.5 62.3898,509.5 Q62.0382,509.5 61.7414,509.6406 Q61.4523,509.7813 61.2257,510.0938 Q60.9992,510.4063 60.9992,510.8359 L60.9992,511.2969 Q60.9992,511.8125 61.4211,512.1563 Q61.8429,512.5 62.5929,512.5 Q63.0382,512.5 63.3507,512.3984 Q63.5304,512.3438 63.7336,512.1641 Q63.8664,512.0625 63.9367,512.0313 Q64.007,512 64.0929,512 Q64.257,512 64.3742,512.1328 Q64.4992,512.2578 64.4992,512.4375 Q64.4992,512.6094 64.3273,512.8125 Q64.0773,513.1094 63.6789,513.2734 Q63.1554,513.5 62.5148,513.5 Q61.7648,513.5 61.1632,513.2031 Q60.6789,512.9688 60.3351,512.4609 Q59.9992,511.9531 59.9992,511.3516 L59.9992,510.8047 Q59.9992,510.1797 60.2961,509.6328 Q60.6007,509.0859 61.1242,508.7969 Q61.6554,508.5 62.2492,508.5 Q62.6086,508.5 62.9211,508.625 Q63.2336,508.75 63.4992,509 Z " fill="#000000"/><text fill="#000000" font-family="sans-serif" font-size="6" lengthAdjust="spacing" textLength="36" x="69.4992" y="513.2051">Vaccine Type</text><line style="stroke:#A80036;stroke-width:0.75;" x1="55.4992" x2="106.4992" y1="518.75" y2="518.75"/><text fill="#000000" font-family="sans-serif" font-size="5.5" lengthAdjust="spacing" textLength="29.5" x="57.9992" y="526.4595">-designation</text><!--MD5=[09a7c55777fef49315889a7930dcc2eb]
class Vaccine Scheduler--><rect codeLine="102" fill="#FEFECE" filter="url(#f108rzjuih23zt)" height="47.6719" id="Vaccine Scheduler" style="stroke:#A80036;stroke-width:0.75;" width="67" x="518.9992" y="406"/><ellipse cx="526.4992" cy="414" fill="#ADD1B2" rx="5.5" ry="5.5" style="stroke:#A80036;stroke-width:0.5;"/><path d="M527.4992,412.25 Q527.6007,412 527.7179,411.875 Q527.8351,411.75 527.9679,411.75 Q528.2023,411.75 528.3507,411.8906 Q528.4992,412.0313 528.4992,412.3594 L528.4992,413.1406 Q528.4992,413.4688 528.3586,413.6094 Q528.2179,413.75 527.9992,413.75 Q527.8039,413.75 527.6789,413.6641 Q527.5539,413.5781 527.4992,413.3516 Q527.4757,413.1953 527.3898,413.1094 Q527.2336,412.9453 526.9523,412.8516 Q526.6711,412.75 526.3898,412.75 Q526.0382,412.75 525.7414,412.8906 Q525.4523,413.0313 525.2257,413.3438 Q524.9992,413.6563 524.9992,414.0859 L524.9992,414.5469 Q524.9992,415.0625 525.4211,415.4063 Q525.8429,415.75 526.5929,415.75 Q527.0382,415.75 527.3507,415.6484 Q527.5304,415.5938 527.7336,415.4141 Q527.8664,415.3125 527.9367,415.2813 Q528.007,415.25 528.0929,415.25 Q528.257,415.25 528.3742,415.3828 Q528.4992,415.5078 528.4992,415.6875 Q528.4992,415.8594 528.3273,416.0625 Q528.0773,416.3594 527.6789,416.5234 Q527.1554,416.75 526.5148,416.75 Q525.7648,416.75 525.1632,416.4531 Q524.6789,416.2188 524.3351,415.7109 Q523.9992,415.2031 523.9992,414.6016 L523.9992,414.0547 Q523.9992,413.4297 524.2961,412.8828 Q524.6007,412.3359 525.1242,412.0469 Q525.6554,411.75 526.2492,411.75 Q526.6086,411.75 526.9211,411.875 Q527.2336,412 527.4992,412.25 Z " fill="#000000"/><text fill="#000000" font-family="sans-serif" font-size="6" lengthAdjust="spacing" textLength="51" x="533.4992" y="416.4551">Vaccine Scheduler</text><line style="stroke:#A80036;stroke-width:0.75;" x1="519.4992" x2="585.4992" y1="422" y2="422"/><text fill="#000000" font-family="sans-serif" font-size="5.5" lengthAdjust="spacing" textLength="44.5" x="521.9992" y="429.7095">-SNS user number</text><text fill="#000000" font-family="sans-serif" font-size="5.5" lengthAdjust="spacing" textLength="46.5" x="521.9992" y="436.6274">-vaccination center</text><text fill="#000000" font-family="sans-serif" font-size="5.5" lengthAdjust="spacing" textLength="23.5" x="521.9992" y="443.5454">-dateTime</text><text fill="#000000" font-family="sans-serif" font-size="5.5" lengthAdjust="spacing" textLength="33" x="521.9992" y="450.4634">-vaccine type</text><!--MD5=[8225232fd7635a41bcc879f92a0811bf]
class Vaccine Administration--><rect codeLine="109" fill="#FEFECE" filter="url(#f108rzjuih23zt)" height="47.6719" id="Vaccine Administration" style="stroke:#A80036;stroke-width:0.75;" width="78.5" x="317.2492" y="492.5"/><ellipse cx="324.7492" cy="500.5" fill="#ADD1B2" rx="5.5" ry="5.5" style="stroke:#A80036;stroke-width:0.5;"/><path d="M325.7492,498.75 Q325.8507,498.5 325.9679,498.375 Q326.0851,498.25 326.2179,498.25 Q326.4523,498.25 326.6007,498.3906 Q326.7492,498.5313 326.7492,498.8594 L326.7492,499.6406 Q326.7492,499.9688 326.6086,500.1094 Q326.4679,500.25 326.2492,500.25 Q326.0539,500.25 325.9289,500.1641 Q325.8039,500.0781 325.7492,499.8516 Q325.7257,499.6953 325.6398,499.6094 Q325.4836,499.4453 325.2023,499.3516 Q324.9211,499.25 324.6398,499.25 Q324.2882,499.25 323.9914,499.3906 Q323.7023,499.5313 323.4757,499.8438 Q323.2492,500.1563 323.2492,500.5859 L323.2492,501.0469 Q323.2492,501.5625 323.6711,501.9063 Q324.0929,502.25 324.8429,502.25 Q325.2882,502.25 325.6007,502.1484 Q325.7804,502.0938 325.9836,501.9141 Q326.1164,501.8125 326.1867,501.7813 Q326.257,501.75 326.3429,501.75 Q326.507,501.75 326.6242,501.8828 Q326.7492,502.0078 326.7492,502.1875 Q326.7492,502.3594 326.5773,502.5625 Q326.3273,502.8594 325.9289,503.0234 Q325.4054,503.25 324.7648,503.25 Q324.0148,503.25 323.4132,502.9531 Q322.9289,502.7188 322.5851,502.2109 Q322.2492,501.7031 322.2492,501.1016 L322.2492,500.5547 Q322.2492,499.9297 322.5461,499.3828 Q322.8507,498.8359 323.3742,498.5469 Q323.9054,498.25 324.4992,498.25 Q324.8586,498.25 325.1711,498.375 Q325.4836,498.5 325.7492,498.75 Z " fill="#000000"/><text fill="#000000" font-family="sans-serif" font-size="6" lengthAdjust="spacing" textLength="62.5" x="331.7492" y="502.9551">Vaccine Administration</text><line style="stroke:#A80036;stroke-width:0.75;" x1="317.7492" x2="395.2492" y1="508.5" y2="508.5"/><text fill="#000000" font-family="sans-serif" font-size="5.5" lengthAdjust="spacing" textLength="33" x="320.2492" y="516.2095">-vaccine type</text><text fill="#000000" font-family="sans-serif" font-size="5.5" lengthAdjust="spacing" textLength="35.5" x="320.2492" y="523.1274">-vaccine name</text><text fill="#000000" font-family="sans-serif" font-size="5.5" lengthAdjust="spacing" textLength="30" x="320.2492" y="530.0454">-lote number</text><text fill="#000000" font-family="sans-serif" font-size="5.5" lengthAdjust="spacing" textLength="36" x="320.2492" y="536.9634">+recovery time</text><!--MD5=[197ced0d4bc44d82de159ae428c2e449]
reverse link User to SNS User--><path codeLine="118" d="M355.9142,100.075 C405.4242,111.315 512.9542,141.89 576.9992,206 C605.3092,234.34 619.6142,280.8 625.5442,305.445 " fill="none" id="User-backto-SNS User" style="stroke:#A80036;stroke-width:0.5;"/><polygon fill="none" points="355.1492,103.49,346.1292,97.935,356.6442,96.65,355.1492,103.49" style="stroke:#A80036;stroke-width:0.5;"/><!--MD5=[1e9705534ea2f5f3045e58998aa20e5a]
reverse link User to Employee--><path codeLine="119" d="M331.3592,128.115 C331.9442,138.625 332.5492,149.425 332.9642,156.88 " fill="none" id="User-backto-Employee" style="stroke:#A80036;stroke-width:0.5;"/><polygon fill="none" points="327.8592,128.225,330.7992,118.045,334.8492,127.835,327.8592,128.225" style="stroke:#A80036;stroke-width:0.5;"/><!--MD5=[b8a4f1f13c2d56b2385b1bfafed8418f]
link Employee to Administrator--><path codeLine="121" d="M319.1742,177.055 C312.8442,181.045 305.2142,185.545 297.9992,189 C293.3092,191.245 291.7242,190.83 286.9992,193 C279.5842,196.405 278.6192,199.085 270.9992,202 C263.3442,204.93 260.6042,202.95 252.9992,206 C245.3092,209.085 237.3642,213.74 230.9442,217.925 " fill="none" id="Employee-Administrator" style="stroke:#A80036;stroke-width:0.5;"/><polygon fill="#000000" points="287.2307,198.6387,291.952,198.0711,290.7168,195.4044,287.2307,198.6387" style="stroke:#000000;stroke-width:0.5;"/><text fill="#000000" font-family="sans-serif" font-size="6.5" lengthAdjust="spacing" textLength="15.5" x="293.9992" y="200.2476">plays</text><text fill="#000000" font-family="sans-serif" font-size="6.5" lengthAdjust="spacing" textLength="3.5" x="311.1531" y="187.7802">1</text><text fill="#000000" font-family="sans-serif" font-size="6.5" lengthAdjust="spacing" textLength="3.5" x="230.8796" y="212.5638">1</text><!--MD5=[1da12df22706e73e1def33b218b7f412]
link Employee to Receptionist--><path codeLine="122" d="M355.3742,169.76 C389.4092,173.825 456.6242,184.08 509.4992,206 C516.9042,209.07 524.4792,213.77 530.5442,217.995 " fill="none" id="Employee-Receptionist" style="stroke:#A80036;stroke-width:0.5;"/><polygon fill="#000000" points="500.4095,198.2516,496.4393,195.6342,495.6591,198.4677,500.4095,198.2516" style="stroke:#000000;stroke-width:0.5;"/><text fill="#000000" font-family="sans-serif" font-size="6.5" lengthAdjust="spacing" textLength="15.5" x="502.4992" y="200.2476">plays</text><text fill="#000000" font-family="sans-serif" font-size="6.5" lengthAdjust="spacing" textLength="3.5" x="359.2871" y="168.3167">1</text><text fill="#000000" font-family="sans-serif" font-size="6.5" lengthAdjust="spacing" textLength="3.5" x="522.8715" y="212.6544">1</text><!--MD5=[b71b66caf67976638439c0d1a3790473]
link Employee to Nurse--><path codeLine="123" d="M329.5192,177.005 C326.1292,184.37 320.7292,194.545 313.9992,202 C308.4542,208.14 301.1842,213.635 294.6242,217.94 " fill="none" id="Employee-Nurse" style="stroke:#A80036;stroke-width:0.5;"/><polygon fill="#000000" points="321.3774,199.4904,325.4296,197.002,323.193,195.0954,321.3774,199.4904" style="stroke:#000000;stroke-width:0.5;"/><text fill="#000000" font-family="sans-serif" font-size="6.5" lengthAdjust="spacing" textLength="15.5" x="327.4992" y="200.2476">plays</text><text fill="#000000" font-family="sans-serif" font-size="6.5" lengthAdjust="spacing" textLength="3.5" x="324.4076" y="187.7162">1</text><text fill="#000000" font-family="sans-serif" font-size="6.5" lengthAdjust="spacing" textLength="3.5" x="295.4937" y="212.5833">1</text><!--MD5=[c418d4016211d0f95426ee0613715b80]
link Employee to Center Coordinator--><path codeLine="124" d="M343.6842,177.03 C348.4092,181.655 353.9692,187.415 358.4992,193 C364.9842,200.995 371.4042,210.82 375.8042,217.94 " fill="none" id="Employee-Center Coordinator" style="stroke:#A80036;stroke-width:0.5;"/><polygon fill="#000000" points="368.543,199.5542,366.906,195.0896,364.5944,196.9045,368.543,199.5542" style="stroke:#000000;stroke-width:0.5;"/><text fill="#000000" font-family="sans-serif" font-size="6.5" lengthAdjust="spacing" textLength="15.5" x="371.4992" y="200.2476">plays</text><text fill="#000000" font-family="sans-serif" font-size="6.5" lengthAdjust="spacing" textLength="3.5" x="342.5565" y="187.7482">1</text><text fill="#000000" font-family="sans-serif" font-size="6.5" lengthAdjust="spacing" textLength="3.5" x="370.1172" y="212.5833">1</text><!--MD5=[e6529539d61e4fceb49a82d3c9677c38]
link Company to User--><path codeLine="127" d="M208.3342,28.915 C236.9042,44.205 286.9992,71.01 312.9192,84.875 " fill="none" id="Company-User" style="stroke:#A80036;stroke-width:0.5;"/><polygon fill="#000000" points="258.2035,51.2673,254.9091,47.838,253.5226,50.4294,258.2035,51.2673" style="stroke:#000000;stroke-width:0.5;"/><text fill="#000000" font-family="sans-serif" font-size="6.5" lengthAdjust="spacing" textLength="15" x="260.4992" y="52.7476">owns</text><text fill="#000000" font-family="sans-serif" font-size="6.5" lengthAdjust="spacing" textLength="3.5" x="212.3019" y="29.0451">1</text><text fill="#000000" font-family="sans-serif" font-size="6.5" lengthAdjust="spacing" textLength="2.5" x="306.5189" y="80.6972">*</text><!--MD5=[eaea43e34e45c5b9d20b595fc78f1f20]
link Company to Administrator--><path codeLine="128" d="M188.9092,30.635 C194.5692,69.605 211.1742,183.96 216.1042,217.9 " fill="none" id="Company-Administrator" style="stroke:#A80036;stroke-width:0.5;"/><polygon fill="#000000" points="207.8585,140.0619,208.6627,135.3752,205.7543,135.7975,207.8585,140.0619" style="stroke:#000000;stroke-width:0.5;"/><text fill="#000000" font-family="sans-serif" font-size="6.5" lengthAdjust="spacing" textLength="25" x="211.9992" y="140.2476">registers</text><text fill="#000000" font-family="sans-serif" font-size="6.5" lengthAdjust="spacing" textLength="3.5" x="185.4442" y="41.2684">1</text><text fill="#000000" font-family="sans-serif" font-size="6.5" lengthAdjust="spacing" textLength="2.5" x="212.8272" y="212.5315">*</text><!--MD5=[c8d62216aeb81df5555ad90e26c3380c]
link Company to Vaccine Type--><path codeLine="129" d="M165.5842,17.08 C117.7742,17.365 6.4992,25.375 6.4992,93.75 C6.4992,93.75 6.4992,93.75 6.4992,430.25 C6.4992,462.245 36.5192,488.07 58.4442,502.67 " fill="none" id="Company-Vaccine Type" style="stroke:#A80036;stroke-width:0.5;"/><polygon fill="#000000" points="8.4605,230.5292,10.8699,226.4295,8,225.7962,8.4605,230.5292" style="stroke:#000000;stroke-width:0.5;"/><text fill="#000000" font-family="sans-serif" font-size="6.5" lengthAdjust="spacing" textLength="20.5" x="13.4992" y="230.7476">defines</text><text fill="#000000" font-family="sans-serif" font-size="6.5" lengthAdjust="spacing" textLength="3.5" x="158.2475" y="15.1997">1</text><text fill="#000000" font-family="sans-serif" font-size="6.5" lengthAdjust="spacing" textLength="2.5" x="50.4393" y="497.382">*</text><!--MD5=[c85088aaf5306b608aa313cd05040dc9]
link Company to Vaccination Center--><path codeLine="130" d="M178.4042,30.525 C169.5392,45.235 156.9992,70.205 156.9992,93.75 C156.9992,93.75 156.9992,93.75 156.9992,228.5 C156.9992,243.495 169.9692,242.575 182.9992,250 C231.2842,277.51 291.9542,297.53 333.8442,309.375 " fill="none" id="Company-Vaccination Center" style="stroke:#A80036;stroke-width:0.5;"/><polygon fill="#000000" points="160.7164,169.2715,159.7979,164.6058,157.2309,166.0368,160.7164,169.2715" style="stroke:#000000;stroke-width:0.5;"/><text fill="#000000" font-family="sans-serif" font-size="6.5" lengthAdjust="spacing" textLength="26.5" x="163.9992" y="169.7476">manages</text><text fill="#000000" font-family="sans-serif" font-size="6.5" lengthAdjust="spacing" textLength="3.5" x="172.6412" y="41.1344">1</text><text fill="#000000" font-family="sans-serif" font-size="6.5" lengthAdjust="spacing" textLength="2.5" x="327.4468" y="306.8113">*</text><!--MD5=[818fc5673e9174b22dbd878d38c20118]
link Vaccination Center to Mass Vaccination Center--><path codeLine="132" d="M415.0692,367.135 C429.0192,386.635 444.1542,407.8 452.6692,419.705 " fill="none" id="Vaccination Center-Mass Vaccination Center" style="stroke:#A80036;stroke-width:0.5;"/><polygon fill="#000000" points="431.5448,384.5545,432.9806,389.0878,435.371,387.3781,431.5448,384.5545" style="stroke:#000000;stroke-width:0.5;"/><text fill="#000000" font-family="sans-serif" font-size="6.5" lengthAdjust="spacing" textLength="18" x="437.4992" y="389.2476">part of</text><text fill="#000000" font-family="sans-serif" font-size="6.5" lengthAdjust="spacing" textLength="3.5" x="414.0386" y="377.91">1</text><text fill="#000000" font-family="sans-serif" font-size="6.5" lengthAdjust="spacing" textLength="2.5" x="447.7957" y="414.3527">*</text><!--MD5=[38cb0bffe7afeb359b32f0212a17ed98]
link Vaccination Center to Healthcare Center--><path codeLine="133" d="M376.6442,367.135 C374.1492,383.215 371.4742,400.425 369.5792,412.64 " fill="none" id="Vaccination Center-Healthcare Center" style="stroke:#A80036;stroke-width:0.5;"/><polygon fill="#000000" points="376.8827,384.1175,374.7368,388.361,377.6409,388.8119,376.8827,384.1175" style="stroke:#000000;stroke-width:0.5;"/><text fill="#000000" font-family="sans-serif" font-size="6.5" lengthAdjust="spacing" textLength="18" x="380.9992" y="389.2476">part of</text><text fill="#000000" font-family="sans-serif" font-size="6.5" lengthAdjust="spacing" textLength="3.5" x="372.4316" y="377.91">1</text><text fill="#000000" font-family="sans-serif" font-size="6.5" lengthAdjust="spacing" textLength="2.5" x="367.341" y="407.265">*</text><!--MD5=[2a4728188ddc87eed5bf9223971cb905]
link Vaccination Center to Vaccine Scheduler--><path codeLine="134" d="M433.0642,354.16 C460.7242,371.55 494.4442,392.75 518.9942,408.185 " fill="none" id="Vaccination Center-Vaccine Scheduler" style="stroke:#A80036;stroke-width:0.5;"/><polygon fill="#000000" points="488.3827,385.2573,491.4293,388.9084,492.9936,386.4204,488.3827,385.2573" style="stroke:#000000;stroke-width:0.5;"/><text fill="#000000" font-family="sans-serif" font-size="6.5" lengthAdjust="spacing" textLength="24.5" x="494.9992" y="389.2476">plans for</text><text fill="#000000" font-family="sans-serif" font-size="6.5" lengthAdjust="spacing" textLength="3.5" x="436.993" y="355.0251">1</text><text fill="#000000" font-family="sans-serif" font-size="6.5" lengthAdjust="spacing" textLength="2.5" x="512.4756" y="403.9768">*</text><!--MD5=[edc107c0a572352bcd12c9afaba4390b]
link Administrator to User--><path codeLine="136" d="M224.1992,217.885 C233.9442,204.06 252.8092,177.935 270.4992,157 C284.1492,140.85 300.8092,123.465 312.9392,111.18 " fill="none" id="Administrator-User" style="stroke:#A80036;stroke-width:0.5;"/><polygon fill="#000000" points="274.5977,165.1657,270.5761,167.7033,272.8357,169.5825,274.5977,165.1657" style="stroke:#000000;stroke-width:0.5;"/><text fill="#000000" font-family="sans-serif" font-size="6.5" lengthAdjust="spacing" textLength="25" x="277.4992" y="169.7476">registers</text><text fill="#000000" font-family="sans-serif" font-size="6.5" lengthAdjust="spacing" textLength="2.5" x="223.3001" y="212.5121">*</text><text fill="#000000" font-family="sans-serif" font-size="6.5" lengthAdjust="spacing" textLength="2.5" x="306.5432" y="112.7564">*</text><!--MD5=[e1f8a3c7f48348bada9b2abb00b7ed2e]
link Administrator to Vaccination Center--><path codeLine="137" d="M232.9692,238.055 C239.1642,241.835 246.3892,246.175 252.9992,250 C279.5442,265.35 309.4742,281.92 333.9692,295.285 " fill="none" id="Administrator-Vaccination Center" style="stroke:#A80036;stroke-width:0.5;"/><polygon fill="#000000" points="278.6743,259.8204,275.4639,256.3123,274.0151,258.8693,278.6743,259.8204" style="stroke:#000000;stroke-width:0.5;"/><text fill="#000000" font-family="sans-serif" font-size="6.5" lengthAdjust="spacing" textLength="25" x="280.9992" y="261.2476">registers</text><text fill="#000000" font-family="sans-serif" font-size="6.5" lengthAdjust="spacing" textLength="3.5" x="233.3279" y="248.7802">1</text><text fill="#000000" font-family="sans-serif" font-size="6.5" lengthAdjust="spacing" textLength="2.5" x="327.4226" y="291.545">*</text><!--MD5=[4f299fe5fafb646d32694f33b579789b]
link Administrator to Vaccine Type--><path codeLine="138" d="M191.0742,230.91 C167.4892,233.875 132.5242,240.315 104.9992,254 C90.1692,261.37 84.1592,263.32 76.4992,278 C36.4842,354.675 64.9742,465.08 76.6492,502.655 " fill="none" id="Administrator-Vaccine Type" style="stroke:#A80036;stroke-width:0.5;"/><polygon fill="#000000" points="58.029,388.892,61.1384,385.2941,58.4298,384.1536,58.029,388.892" style="stroke:#000000;stroke-width:0.5;"/><text fill="#000000" font-family="sans-serif" font-size="6.5" lengthAdjust="spacing" textLength="25" x="63.4992" y="389.2476">registers</text><text fill="#000000" font-family="sans-serif" font-size="6.5" lengthAdjust="spacing" textLength="3.5" x="183.7882" y="229.5229">1</text><text fill="#000000" font-family="sans-serif" font-size="6.5" lengthAdjust="spacing" textLength="2.5" x="72.8542" y="497.3635">*</text><!--MD5=[0e439f75a3d966f965fe5f237a1bacbe]
link Administrator to Vaccine--><path codeLine="139" d="M191.1442,230.775 C162.0242,234.855 116.4192,246.24 94.9992,278 C72.8792,310.795 79.2592,330.71 94.9992,367 C104.6592,389.27 126.6442,407.215 142.6992,418.015 " fill="none" id="Administrator-Vaccine" style="stroke:#A80036;stroke-width:0.5;"/><polygon fill="#000000" points="96.873,325.0082,99.4284,320.9979,96.5832,320.2617,96.873,325.0082" style="stroke:#000000;stroke-width:0.5;"/><text fill="#000000" font-family="sans-serif" font-size="6.5" lengthAdjust="spacing" textLength="25" x="101.9992" y="325.2476">registers</text><text fill="#000000" font-family="sans-serif" font-size="6.5" lengthAdjust="spacing" textLength="3.5" x="183.6919" y="238.4877">1</text><text fill="#000000" font-family="sans-serif" font-size="6.5" lengthAdjust="spacing" textLength="2.5" x="136.2518" y="413.6982">*</text><!--MD5=[0a89f831c564e2a96657c179f433248d]
link Center Coordinator to Vaccination Center--><path codeLine="141" d="M381.7042,238.155 C381.9092,247.67 382.2342,262.915 382.5542,277.815 " fill="none" id="Center Coordinator-Vaccination Center" style="stroke:#A80036;stroke-width:0.5;"/><polygon fill="#000000" points="384.5527,261.0873,385.925,256.5343,382.9867,256.5973,384.5527,261.0873" style="stroke:#000000;stroke-width:0.5;"/><text fill="#000000" font-family="sans-serif" font-size="6.5" lengthAdjust="spacing" textLength="76.5" x="388.9992" y="261.2476">monitors Covid-19 process</text><text fill="#000000" font-family="sans-serif" font-size="6.5" lengthAdjust="spacing" textLength="3.5" x="377.789" y="248.7303">1</text><text fill="#000000" font-family="sans-serif" font-size="6.5" lengthAdjust="spacing" textLength="2.5" x="379.8724" y="272.5307">*</text><!--MD5=[f4db935265bd2fdf0fed286f97d3afbe]
link Vaccine to Vaccine Type--><path codeLine="143" d="M145.7892,446.94 C130.4142,463.265 107.3142,487.8 93.2542,502.735 " fill="none" id="Vaccine-Vaccine Type" style="stroke:#A80036;stroke-width:0.5;"/><polygon fill="#000000" points="124.2854,474.908,128.4555,472.6227,126.3158,470.608,124.2854,474.908" style="stroke:#000000;stroke-width:0.5;"/><text fill="#000000" font-family="sans-serif" font-size="6.5" lengthAdjust="spacing" textLength="25" x="130.4992" y="475.7476">is part of</text><text fill="#000000" font-family="sans-serif" font-size="6.5" lengthAdjust="spacing" textLength="2.5" x="140.3742" y="457.3588">*</text><text fill="#000000" font-family="sans-serif" font-size="6.5" lengthAdjust="spacing" textLength="3.5" x="92.3148" y="497.2447">1</text><!--MD5=[f3062dd802e91b951dedaf692afef716]
link Vaccine to Vaccine Administration--><path codeLine="144" d="M180.3092,445.475 C193.6642,455.68 212.3692,468.795 230.4992,477.5 C258.2692,490.83 291.7142,500.725 317.1692,507.11 " fill="none" id="Vaccine-Vaccine Administration" style="stroke:#A80036;stroke-width:0.5;"/><polygon fill="#000000" points="230.7197,472.0613,234.2399,475.2583,235.4467,472.5785,230.7197,472.0613" style="stroke:#000000;stroke-width:0.5;"/><text fill="#000000" font-family="sans-serif" font-size="6.5" lengthAdjust="spacing" textLength="10.5" x="237.4992" y="475.7476">of a</text><text fill="#000000" font-family="sans-serif" font-size="6.5" lengthAdjust="spacing" textLength="3.5" x="184.2284" y="446.49">1</text><text fill="#000000" font-family="sans-serif" font-size="6.5" lengthAdjust="spacing" textLength="2.5" x="310.8014" y="504.6053">*</text><!--MD5=[4af8d45b7a0a0b890baed4cdf290dd64]
link Administration Process to Vaccine--><path codeLine="146" d="M177.4992,346.315 C173.6242,366.415 168.1192,394.925 164.6842,412.74 " fill="none" id="Administration Process-Vaccine" style="stroke:#A80036;stroke-width:0.5;"/><polygon fill="#000000" points="173.4728,384.1332,171.1732,388.2955,174.0589,388.8522,173.4728,384.1332" style="stroke:#000000;stroke-width:0.5;"/><text fill="#000000" font-family="sans-serif" font-size="6.5" lengthAdjust="spacing" textLength="25" x="177.4992" y="389.2476">follows a</text><text fill="#000000" font-family="sans-serif" font-size="6.5" lengthAdjust="spacing" textLength="2.5" x="174.1546" y="357.1482">*</text><text fill="#000000" font-family="sans-serif" font-size="6.5" lengthAdjust="spacing" textLength="3.5" x="161.4667" y="407.3847">1</text><!--MD5=[d5cd3af1216933880d480369e120b377]
link Nurse to Vaccine Administration--><path codeLine="148" d="M275.2092,238.135 C268.2642,263.745 252.0092,335.345 269.4992,391 C282.0092,430.8 312.2142,468.99 333.5092,492.4 " fill="none" id="Nurse-Vaccine Administration" style="stroke:#A80036;stroke-width:0.5;"/><polygon fill="#000000" points="272.5579,389.0247,272.9795,384.2881,270.1149,384.9449,272.5579,389.0247" style="stroke:#000000;stroke-width:0.5;"/><text fill="#000000" font-family="sans-serif" font-size="6.5" lengthAdjust="spacing" textLength="49" x="276.4992" y="389.2476">is responsible for</text><text fill="#000000" font-family="sans-serif" font-size="6.5" lengthAdjust="spacing" textLength="3.5" x="270.4891" y="248.705">1</text><text fill="#000000" font-family="sans-serif" font-size="6.5" lengthAdjust="spacing" textLength="2.5" x="327.4489" y="487.0574">*</text><!--MD5=[eb59f0170bc8b1785dea62883632c51d]
link SNS User to Vaccine Administration--><path codeLine="150" d="M654.4242,333.73 C677.1992,344.08 710.8042,361.205 735.9992,382 C764.3492,405.395 780.2042,434.585 755.9992,462.25 C732.4542,489.155 491.8842,507.2 395.8142,513.385 " fill="none" id="SNS User-Vaccine Administration" style="stroke:#A80036;stroke-width:0.5;"/><polygon fill="#000000" points="772.0524,428.4116,767.4997,429.785,769.1765,432.1987,772.0524,428.4116" style="stroke:#000000;stroke-width:0.5;"/><text fill="#000000" font-family="sans-serif" font-size="6.5" lengthAdjust="spacing" textLength="47" x="774.4992" y="432.4976">Administered on</text><text fill="#000000" font-family="sans-serif" font-size="6.5" lengthAdjust="spacing" textLength="3.5" x="658.2457" y="333.5182">1</text><text fill="#000000" font-family="sans-serif" font-size="6.5" lengthAdjust="spacing" textLength="2.5" x="399.8073" y="520.2445">*</text><!--MD5=[6e5df43d9abf37a7d51b5dcfd5e82d7c]
link SNS User to Vaccine Scheduler--><path codeLine="151" d="M616.7992,339.615 C608.1592,351.415 596.3192,367.645 585.9992,382 C580.4242,389.755 574.3742,398.265 568.9692,405.895 " fill="none" id="SNS User-Vaccine Scheduler" style="stroke:#A80036;stroke-width:0.5;"/><polygon fill="#000000" points="587.0362,388.6152,590.8743,385.8077,588.4911,384.0879,587.0362,388.6152" style="stroke:#000000;stroke-width:0.5;"/><text fill="#000000" font-family="sans-serif" font-size="6.5" lengthAdjust="spacing" textLength="27" x="592.9992" y="389.2476">creates a</text><text fill="#000000" font-family="sans-serif" font-size="6.5" lengthAdjust="spacing" textLength="3.5" x="610.9015" y="350.0209">1</text><text fill="#000000" font-family="sans-serif" font-size="6.5" lengthAdjust="spacing" textLength="2.5" x="568.7046" y="400.5516">*</text><!--MD5=[ae9814694491c068dbf8719e99334d51]
link SNS User to Vaccine Certificate--><path codeLine="152" d="M626.3342,339.575 C624.5442,353.395 622.9342,373.575 625.4992,391 C626.9742,401.015 630.5042,412.05 633.2692,419.68 " fill="none" id="SNS User-Vaccine Certificate" style="stroke:#A80036;stroke-width:0.5;"/><polygon fill="#000000" points="628.2148,389.0786,629.2887,384.4461,626.3607,384.6996,628.2148,389.0786" style="stroke:#000000;stroke-width:0.5;"/><text fill="#000000" font-family="sans-serif" font-size="6.5" lengthAdjust="spacing" textLength="69" x="632.4992" y="389.2476">requests for issuance of</text><text fill="#000000" font-family="sans-serif" font-size="6.5" lengthAdjust="spacing" textLength="3.5" x="622.0478" y="350.1068">1</text><text fill="#000000" font-family="sans-serif" font-size="6.5" lengthAdjust="spacing" textLength="2.5" x="629.3063" y="414.3203">*</text><!--MD5=[3eb16d01ab80b888b0106a8bc8d6c52a]
link SNS User to Health Records--><path codeLine="153" d="M654.3492,337.18 C670.7592,347.585 691.3492,363.155 703.9992,382 C709.4192,390.075 712.6892,400.33 714.6492,409.22 " fill="none" id="SNS User-Health Records" style="stroke:#A80036;stroke-width:0.5;"/><polygon fill="#000000" points="712.6038,388.5049,710.8278,384.0938,708.5742,385.9801,712.6038,388.5049" style="stroke:#000000;stroke-width:0.5;"/><text fill="#000000" font-family="sans-serif" font-size="6.5" lengthAdjust="spacing" textLength="16" x="715.4992" y="389.2476">has a</text><text fill="#000000" font-family="sans-serif" font-size="6.5" lengthAdjust="spacing" textLength="3.5" x="658.3295" y="346.6961">1</text><text fill="#000000" font-family="sans-serif" font-size="6.5" lengthAdjust="spacing" textLength="2.5" x="711.4445" y="403.7877">*</text><!--MD5=[c2257b42ce428621be50ce394ae5769a]
link Vaccine Scheduler to Vaccine Type--><path codeLine="155" d="M525.8592,453.54 C520.7142,457 515.1592,460.115 509.4992,462.25 C493.6442,468.235 450.3492,466.68 433.4992,468.5 C311.0292,481.735 165.3642,503.035 107.0342,511.795 " fill="none" id="Vaccine Scheduler-Vaccine Type" style="stroke:#A80036;stroke-width:0.5;"/><polygon fill="#000000" points="433.523,473.4323,438.2049,474.2647,437.8,471.3538,433.523,473.4323" style="stroke:#000000;stroke-width:0.5;"/><text fill="#000000" font-family="sans-serif" font-size="6.5" lengthAdjust="spacing" textLength="32" x="440.4992" y="475.7476">for taking a</text><text fill="#000000" font-family="sans-serif" font-size="6.5" lengthAdjust="spacing" textLength="2.5" x="519.2628" y="464.3695">*</text><text fill="#000000" font-family="sans-serif" font-size="6.5" lengthAdjust="spacing" textLength="3.5" x="110.9414" y="509.3717">1</text><!--MD5=[acf6e962d8fc238b0f06659f444af8b4]
link Vaccine Scheduler to Vaccine Administration--><path codeLine="156" d="M523.6742,453.525 C519.0792,456.69 514.2642,459.72 509.4992,462.25 C472.8392,481.715 427.6342,496.51 395.8992,505.555 " fill="none" id="Vaccine Scheduler-Vaccine Administration" style="stroke:#A80036;stroke-width:0.5;"/><polygon fill="#000000" points="498.3146,472.1451,493.5718,472.4897,494.6802,475.2116,498.3146,472.1451" style="stroke:#000000;stroke-width:0.5;"/><text fill="#000000" font-family="sans-serif" font-size="6.5" lengthAdjust="spacing" textLength="21" x="500.4992" y="475.7476">fulfilling</text><text fill="#000000" font-family="sans-serif" font-size="6.5" lengthAdjust="spacing" textLength="11" x="507.6327" y="464.3523">0..1</text><text fill="#000000" font-family="sans-serif" font-size="6.5" lengthAdjust="spacing" textLength="11" x="399.7578" y="503.0399">0..1</text><!--MD5=[b27f4f677273e2acae713a5df871a6b8]
link Receptionist to Vaccine Scheduler--><path codeLine="158" d="M543.4492,238.05 C544.8742,268.165 549.3042,361.77 551.3892,405.845 " fill="none" id="Receptionist-Vaccine Scheduler" style="stroke:#A80036;stroke-width:0.5;"/><polygon fill="#000000" points="551.6173,325.0851,552.8714,320.4982,549.9358,320.6371,551.6173,325.0851" style="stroke:#000000;stroke-width:0.5;"/><text fill="#000000" font-family="sans-serif" font-size="6.5" lengthAdjust="spacing" textLength="27" x="555.9992" y="325.2476">creates a</text><text fill="#000000" font-family="sans-serif" font-size="6.5" lengthAdjust="spacing" textLength="3.5" x="539.5836" y="248.7738">1</text><text fill="#000000" font-family="sans-serif" font-size="6.5" lengthAdjust="spacing" textLength="2.5" x="548.5426" y="400.4943">*</text><!--MD5=[1182fa9aa8a3be1a49ca5c806ed078d7]
link Receptionist to Vaccination Center--><path codeLine="159" d="M530.1642,238.07 C524.1392,242.21 516.7092,246.82 509.4992,250 C503.1892,252.785 500.8392,251.28 494.4992,254 C473.4692,263.02 451.7092,275.54 433.0892,287.385 " fill="none" id="Receptionist-Vaccination Center" style="stroke:#A80036;stroke-width:0.5;"/><polygon fill="#000000" points="494.7703,259.7202,499.4679,258.982,498.1368,256.3617,494.7703,259.7202" style="stroke:#000000;stroke-width:0.5;"/><text fill="#000000" font-family="sans-serif" font-size="6.5" lengthAdjust="spacing" textLength="28" x="501.4992" y="261.2476">checks in</text><text fill="#000000" font-family="sans-serif" font-size="6.5" lengthAdjust="spacing" textLength="3.5" x="522.5621" y="248.7995">1</text><text fill="#000000" font-family="sans-serif" font-size="6.5" lengthAdjust="spacing" textLength="2.5" x="436.9816" y="283.1377">*</text><!--MD5=[13aea161c851e967bc2e50b8f61788d5]
@startuml
hide methods
skinparam classAttributeIconSize 0



together {

class User {
  -name
  -password
  -email
  - role
}
class Employee{
}

}



together {

class "SNS User" {
  -SNS user number
  -mobile Contact
}
class "Vaccine Certificate"{
}
class "Health Records" {
-vaccination history
-health condition
-adverse reactions
}

}



class Receptionist {
}

together {

class Nurse {
}
class Administrator {
}

}

class Company {
  -Designation
}

together {

class "Center Coordinator" {
}
class "Vaccination Center" {
  -name
  -address
  -phone number
  -email address
  -fax number
  -website address
  -Open and closing hours
  -Slot duration
  -maximum number of vaccines per slot
  +waiting list
}

class "Healthcare Center" {
  -ARS Designation
  -AGES Designation
}

class "Mass Vaccination Center" {

}

}

together {
class "Administration Process"{
-age group
-doses administrated per age group
-vaccine dosage
-time intervals
}

class Vaccine{
-designation
-lot number
}

}

class "Vaccine Type"{
-designation
}

class "Vaccine Scheduler"{
-SNS user number
-vaccination center
-dateTime
-vaccine type
}

class "Vaccine Administration"{
-vaccine type
-vaccine name
-lote number
+recovery time
}



User <|- - "SNS User"
User <|- - "Employee"

Employee "1" - - "1" "Administrator" : plays >
Employee "1" - - "1" "Receptionist" : plays >
Employee "1" - - "1" "Nurse" : plays >
Employee "1" - - "1" "Center Coordinator" : plays >


Company "1" - - "*" User : owns >
Company "1" - - "*" Administrator : registers >
Company "1" - - "*" "Vaccine Type" : defines >
Company "1" - - "*" "Vaccination Center" : manages >

"Vaccination Center" "1" - - "*" "Mass Vaccination Center" : part of <
"Vaccination Center" "1" - - "*" "Healthcare Center" : part of <
"Vaccination Center" "1" - - "*" "Vaccine Scheduler" : plans for <

Administrator "*" - - "*" User : registers >
Administrator "1" - - "*" "Vaccination Center" : registers >
Administrator "1" - - "*" "Vaccine Type" : registers >
Administrator "1" - - "*" Vaccine : registers >

"Center Coordinator" "1" - - "*" "Vaccination Center" : monitors Covid-19 process >

Vaccine "*" - - "1" "Vaccine Type" : is part of >
Vaccine "1" - - "*" "Vaccine Administration" : of a <

"Administration Process" "*" - - "1" Vaccine : follows a <

Nurse "1" - - "*" "Vaccine Administration" : is responsible for >

"SNS User" "1" - - "*" "Vaccine Administration" : Administered on <
"SNS User" "1" - - "*" "Vaccine Scheduler" : creates a >
"SNS User" "1" - - "*" "Vaccine Certificate" : requests for issuance of >
"SNS User" "1" - - "*" "Health Records" : has a >

"Vaccine Scheduler" "*" - - "1" "Vaccine Type" : for taking a >
"Vaccine Scheduler" "0..1" - - "0..1" "Vaccine Administration" : fulfilling <

Receptionist "1" - - "*" "Vaccine Scheduler" : creates a >
Receptionist "1" - - "*" "Vaccination Center" : checks in >

@enduml

PlantUML version 1.2022.1(Tue Feb 01 18:19:58 GMT 2022)
(GPL source distribution)
Java Runtime: OpenJDK Runtime Environment
JVM: OpenJDK 64-Bit Server VM
Default Encoding: Cp1252
Language: pt
Country: PT
--></g></svg>