<?xml version="1.0" encoding="UTF-8" standalone="no"?><svg xmlns="http://www.w3.org/2000/svg" xmlns:xlink="http://www.w3.org/1999/xlink" contentStyleType="text/css" height="1165px" preserveAspectRatio="none" style="width:1513px;height:1165px;background:#FFFFFF;" version="1.1" viewBox="0 0 1513 1165" width="1513px" zoomAndPan="magnify"><defs/><g><!--MD5=[6fe80debfa50e650b0e396930ac4fd23]
class RegisterArrivalOfSnsUserToTakeVaccineController--><g id="elem_RegisterArrivalOfSnsUserToTakeVaccineController"><rect codeLine="3" fill="#F1F1F1" height="100.8281" id="RegisterArrivalOfSnsUserToTakeVaccineController" rx="2.5" ry="2.5" style="stroke:#181818;stroke-width:0.5;" width="354" x="753" y="116"/><ellipse cx="768" cy="132" fill="#ADD1B2" rx="11" ry="11" style="stroke:#181818;stroke-width:1.0;"/><path d="M770,128.5 Q770.2031,128 770.4375,127.75 Q770.6719,127.5 770.9375,127.5 Q771.4063,127.5 771.7031,127.7813 Q772,128.0625 772,128.7188 L772,130.2813 Q772,130.9375 771.7188,131.2188 Q771.4375,131.5 771,131.5 Q770.6094,131.5 770.3594,131.3281 Q770.1094,131.1563 770,130.7031 Q769.9531,130.3906 769.7813,130.2188 Q769.4688,129.8906 768.9063,129.7031 Q768.3438,129.5 767.7813,129.5 Q767.0781,129.5 766.4844,129.7813 Q765.9063,130.0625 765.4531,130.6875 Q765,131.3125 765,132.1719 L765,133.0938 Q765,134.125 765.8438,134.8125 Q766.6875,135.5 768.1875,135.5 Q769.0781,135.5 769.7031,135.2969 Q770.0625,135.1875 770.4688,134.8281 Q770.7344,134.625 770.875,134.5625 Q771.0156,134.5 771.1875,134.5 Q771.5156,134.5 771.75,134.7656 Q772,135.0156 772,135.375 Q772,135.7188 771.6563,136.125 Q771.1563,136.7188 770.3594,137.0469 Q769.3125,137.5 768.0313,137.5 Q766.5313,137.5 765.3281,136.9063 Q764.3594,136.4375 763.6719,135.4219 Q763,134.4063 763,133.2031 L763,132.1094 Q763,130.8594 763.5938,129.7656 Q764.2031,128.6719 765.25,128.0938 Q766.3125,127.5 767.5,127.5 Q768.2188,127.5 768.8438,127.75 Q769.4688,128 770,128.5 Z " fill="#000000"/><text fill="#000000" font-family="sans-serif" font-size="14" lengthAdjust="spacing" textLength="322" x="782" y="137.7285">RegisterArrivalOfSnsUserToTakeVaccineController</text><line style="stroke:#181818;stroke-width:0.5;" x1="754" x2="1106" y1="148" y2="148"/><line style="stroke:#181818;stroke-width:0.5;" x1="754" x2="1106" y1="156" y2="156"/><text fill="#000000" font-family="sans-serif" font-size="14" lengthAdjust="spacing" textLength="252" x="759" y="174.5332">+getVaccineScheduler(snsUserNumber)</text><text fill="#000000" font-family="sans-serif" font-size="14" lengthAdjust="spacing" textLength="231" x="759" y="192.1426">+setSnsUserArrivalTime(arrivalTime)</text><text fill="#000000" font-family="sans-serif" font-size="14" lengthAdjust="spacing" textLength="232" x="759" y="209.752">+addSnsUserToWaitingList(snsUser)</text></g><!--MD5=[fb9ebfbeaed633ef7c9d22eb974a6df5]
class RegisterArrivalOfSnsUserToTakeVaccineUI--><g id="elem_RegisterArrivalOfSnsUserToTakeVaccineUI"><rect codeLine="9" fill="#F1F1F1" height="48" id="RegisterArrivalOfSnsUserToTakeVaccineUI" rx="2.5" ry="2.5" style="stroke:#181818;stroke-width:0.5;" width="304" x="778" y="7"/><ellipse cx="793" cy="23" fill="#ADD1B2" rx="11" ry="11" style="stroke:#181818;stroke-width:1.0;"/><path d="M795,19.5 Q795.2031,19 795.4375,18.75 Q795.6719,18.5 795.9375,18.5 Q796.4063,18.5 796.7031,18.7813 Q797,19.0625 797,19.7188 L797,21.2813 Q797,21.9375 796.7188,22.2188 Q796.4375,22.5 796,22.5 Q795.6094,22.5 795.3594,22.3281 Q795.1094,22.1563 795,21.7031 Q794.9531,21.3906 794.7813,21.2188 Q794.4688,20.8906 793.9063,20.7031 Q793.3438,20.5 792.7813,20.5 Q792.0781,20.5 791.4844,20.7813 Q790.9063,21.0625 790.4531,21.6875 Q790,22.3125 790,23.1719 L790,24.0938 Q790,25.125 790.8438,25.8125 Q791.6875,26.5 793.1875,26.5 Q794.0781,26.5 794.7031,26.2969 Q795.0625,26.1875 795.4688,25.8281 Q795.7344,25.625 795.875,25.5625 Q796.0156,25.5 796.1875,25.5 Q796.5156,25.5 796.75,25.7656 Q797,26.0156 797,26.375 Q797,26.7188 796.6563,27.125 Q796.1563,27.7188 795.3594,28.0469 Q794.3125,28.5 793.0313,28.5 Q791.5313,28.5 790.3281,27.9063 Q789.3594,27.4375 788.6719,26.4219 Q788,25.4063 788,24.2031 L788,23.1094 Q788,21.8594 788.5938,20.7656 Q789.2031,19.6719 790.25,19.0938 Q791.3125,18.5 792.5,18.5 Q793.2188,18.5 793.8438,18.75 Q794.4688,19 795,19.5 Z " fill="#000000"/><text fill="#000000" font-family="sans-serif" font-size="14" lengthAdjust="spacing" textLength="272" x="807" y="28.7285">RegisterArrivalOfSnsUserToTakeVaccineUI</text><line style="stroke:#181818;stroke-width:0.5;" x1="779" x2="1081" y1="39" y2="39"/><line style="stroke:#181818;stroke-width:0.5;" x1="779" x2="1081" y1="47" y2="47"/></g><!--MD5=[de60e6d4f424ae4d0522096f76a59010]
class VaccinationCenter--><g id="elem_VaccinationCenter"><rect codeLine="12" fill="#F1F1F1" height="347.3594" id="VaccinationCenter" rx="2.5" ry="2.5" style="stroke:#181818;stroke-width:0.5;" width="263" x="73.5" y="278"/><ellipse cx="142.75" cy="294" fill="#ADD1B2" rx="11" ry="11" style="stroke:#181818;stroke-width:1.0;"/><path d="M144.75,290.5 Q144.9531,290 145.1875,289.75 Q145.4219,289.5 145.6875,289.5 Q146.1563,289.5 146.4531,289.7813 Q146.75,290.0625 146.75,290.7188 L146.75,292.2813 Q146.75,292.9375 146.4688,293.2188 Q146.1875,293.5 145.75,293.5 Q145.3594,293.5 145.1094,293.3281 Q144.8594,293.1563 144.75,292.7031 Q144.7031,292.3906 144.5313,292.2188 Q144.2188,291.8906 143.6563,291.7031 Q143.0938,291.5 142.5313,291.5 Q141.8281,291.5 141.2344,291.7813 Q140.6563,292.0625 140.2031,292.6875 Q139.75,293.3125 139.75,294.1719 L139.75,295.0938 Q139.75,296.125 140.5938,296.8125 Q141.4375,297.5 142.9375,297.5 Q143.8281,297.5 144.4531,297.2969 Q144.8125,297.1875 145.2188,296.8281 Q145.4844,296.625 145.625,296.5625 Q145.7656,296.5 145.9375,296.5 Q146.2656,296.5 146.5,296.7656 Q146.75,297.0156 146.75,297.375 Q146.75,297.7188 146.4063,298.125 Q145.9063,298.7188 145.1094,299.0469 Q144.0625,299.5 142.7813,299.5 Q141.2813,299.5 140.0781,298.9063 Q139.1094,298.4375 138.4219,297.4219 Q137.75,296.4063 137.75,295.2031 L137.75,294.1094 Q137.75,292.8594 138.3438,291.7656 Q138.9531,290.6719 140,290.0938 Q141.0625,289.5 142.25,289.5 Q142.9688,289.5 143.5938,289.75 Q144.2188,290 144.75,290.5 Z " fill="#000000"/><text fill="#000000" font-family="sans-serif" font-size="14" lengthAdjust="spacing" textLength="116" x="163.25" y="299.7285">VaccinationCenter</text><line style="stroke:#181818;stroke-width:0.5;" x1="74.5" x2="335.5" y1="310" y2="310"/><text fill="#000000" font-family="sans-serif" font-size="14" lengthAdjust="spacing" textLength="40" x="79.5" y="328.5332">-name</text><text fill="#000000" font-family="sans-serif" font-size="14" lengthAdjust="spacing" textLength="56" x="79.5" y="346.1426">-address</text><text fill="#000000" font-family="sans-serif" font-size="14" lengthAdjust="spacing" textLength="94" x="79.5" y="363.752">-phoneNumber</text><text fill="#000000" font-family="sans-serif" font-size="14" lengthAdjust="spacing" textLength="90" x="79.5" y="381.3613">-emailAddress</text><text fill="#000000" font-family="sans-serif" font-size="14" lengthAdjust="spacing" textLength="72" x="79.5" y="398.9707">-faxNumber</text><text fill="#000000" font-family="sans-serif" font-size="14" lengthAdjust="spacing" textLength="104" x="79.5" y="416.5801">-websiteAddress</text><text fill="#000000" font-family="sans-serif" font-size="14" lengthAdjust="spacing" textLength="67" x="79.5" y="434.1895">-openHour</text><text fill="#000000" font-family="sans-serif" font-size="14" lengthAdjust="spacing" textLength="68" x="79.5" y="451.7988">-closeHour</text><text fill="#000000" font-family="sans-serif" font-size="14" lengthAdjust="spacing" textLength="81" x="79.5" y="469.4082">-slotDuration</text><text fill="#000000" font-family="sans-serif" font-size="14" lengthAdjust="spacing" textLength="230" x="79.5" y="487.0176">-maximumNumberOfVaccinesPerSlot</text><text fill="#000000" font-family="sans-serif" font-size="14" lengthAdjust="spacing" textLength="151" x="79.5" y="504.627">-vaccinationCenterType</text><text fill="#000000" font-family="sans-serif" font-size="14" lengthAdjust="spacing" textLength="5" x="79.5" y="522.2363">-</text><text fill="#000000" font-family="sans-serif" font-size="14" font-weight="bold" lengthAdjust="spacing" textLength="83" x="84.5" y="522.2363">designation</text><text fill="#000000" font-family="sans-serif" font-size="14" lengthAdjust="spacing" textLength="70" x="79.5" y="539.8457">-waitingList</text><line style="stroke:#181818;stroke-width:0.5;" x1="74.5" x2="335.5" y1="546.9219" y2="546.9219"/><text fill="#000000" font-family="sans-serif" font-size="14" lengthAdjust="spacing" textLength="186" x="79.5" y="565.4551">+getVaccineSchedulerStore()</text><text fill="#000000" font-family="sans-serif" font-size="14" lengthAdjust="spacing" textLength="232" x="79.5" y="583.0645">+addSnsUserToWaitingList(snsUser)</text><text fill="#000000" font-family="sans-serif" font-size="14" lengthAdjust="spacing" textLength="251" x="79.5" y="600.6738">+validateSnsUserInWaitingList(snsUser)</text><text fill="#000000" font-family="sans-serif" font-size="14" lengthAdjust="spacing" textLength="179" x="79.5" y="618.2832">+addToWaitingList(snsUser)</text></g><!--MD5=[bd0795d19dd77bc737a939b13ed8a777]
class VaccineSchedulerStore--><g id="elem_VaccineSchedulerStore"><rect codeLine="32" fill="#F1F1F1" height="65.6094" id="VaccineSchedulerStore" rx="2.5" ry="2.5" style="stroke:#181818;stroke-width:0.5;" width="382" x="7" y="738"/><ellipse cx="119.75" cy="754" fill="#ADD1B2" rx="11" ry="11" style="stroke:#181818;stroke-width:1.0;"/><path d="M121.75,750.5 Q121.9531,750 122.1875,749.75 Q122.4219,749.5 122.6875,749.5 Q123.1563,749.5 123.4531,749.7813 Q123.75,750.0625 123.75,750.7188 L123.75,752.2813 Q123.75,752.9375 123.4688,753.2188 Q123.1875,753.5 122.75,753.5 Q122.3594,753.5 122.1094,753.3281 Q121.8594,753.1563 121.75,752.7031 Q121.7031,752.3906 121.5313,752.2188 Q121.2188,751.8906 120.6563,751.7031 Q120.0938,751.5 119.5313,751.5 Q118.8281,751.5 118.2344,751.7813 Q117.6563,752.0625 117.2031,752.6875 Q116.75,753.3125 116.75,754.1719 L116.75,755.0938 Q116.75,756.125 117.5938,756.8125 Q118.4375,757.5 119.9375,757.5 Q120.8281,757.5 121.4531,757.2969 Q121.8125,757.1875 122.2188,756.8281 Q122.4844,756.625 122.625,756.5625 Q122.7656,756.5 122.9375,756.5 Q123.2656,756.5 123.5,756.7656 Q123.75,757.0156 123.75,757.375 Q123.75,757.7188 123.4063,758.125 Q122.9063,758.7188 122.1094,759.0469 Q121.0625,759.5 119.7813,759.5 Q118.2813,759.5 117.0781,758.9063 Q116.1094,758.4375 115.4219,757.4219 Q114.75,756.4063 114.75,755.2031 L114.75,754.1094 Q114.75,752.8594 115.3438,751.7656 Q115.9531,750.6719 117,750.0938 Q118.0625,749.5 119.25,749.5 Q119.9688,749.5 120.5938,749.75 Q121.2188,750 121.75,750.5 Z " fill="#000000"/><text fill="#000000" font-family="sans-serif" font-size="14" lengthAdjust="spacing" textLength="148" x="140.25" y="759.7285">VaccineSchedulerStore</text><line style="stroke:#181818;stroke-width:0.5;" x1="8" x2="388" y1="770" y2="770"/><line style="stroke:#181818;stroke-width:0.5;" x1="8" x2="388" y1="778" y2="778"/><text fill="#000000" font-family="sans-serif" font-size="14" lengthAdjust="spacing" textLength="370" x="13" y="796.5332">+getVaccineSchedulerBySnsUserNumber(snsUserNumber)</text></g><!--MD5=[2cee96b696cacec021dd6923fb5c99ca]
class VaccineSchedulerMapper--><g id="elem_VaccineSchedulerMapper"><rect codeLine="36" fill="#F1F1F1" height="65.6094" id="VaccineSchedulerMapper" rx="2.5" ry="2.5" style="stroke:#181818;stroke-width:0.5;" width="194" x="589" y="418.5"/><ellipse cx="604" cy="434.5" fill="#ADD1B2" rx="11" ry="11" style="stroke:#181818;stroke-width:1.0;"/><path d="M606,431 Q606.2031,430.5 606.4375,430.25 Q606.6719,430 606.9375,430 Q607.4063,430 607.7031,430.2813 Q608,430.5625 608,431.2188 L608,432.7813 Q608,433.4375 607.7188,433.7188 Q607.4375,434 607,434 Q606.6094,434 606.3594,433.8281 Q606.1094,433.6563 606,433.2031 Q605.9531,432.8906 605.7813,432.7188 Q605.4688,432.3906 604.9063,432.2031 Q604.3438,432 603.7813,432 Q603.0781,432 602.4844,432.2813 Q601.9063,432.5625 601.4531,433.1875 Q601,433.8125 601,434.6719 L601,435.5938 Q601,436.625 601.8438,437.3125 Q602.6875,438 604.1875,438 Q605.0781,438 605.7031,437.7969 Q606.0625,437.6875 606.4688,437.3281 Q606.7344,437.125 606.875,437.0625 Q607.0156,437 607.1875,437 Q607.5156,437 607.75,437.2656 Q608,437.5156 608,437.875 Q608,438.2188 607.6563,438.625 Q607.1563,439.2188 606.3594,439.5469 Q605.3125,440 604.0313,440 Q602.5313,440 601.3281,439.4063 Q600.3594,438.9375 599.6719,437.9219 Q599,436.9063 599,435.7031 L599,434.6094 Q599,433.3594 599.5938,432.2656 Q600.2031,431.1719 601.25,430.5938 Q602.3125,430 603.5,430 Q604.2188,430 604.8438,430.25 Q605.4688,430.5 606,431 Z " fill="#000000"/><text fill="#000000" font-family="sans-serif" font-size="14" lengthAdjust="spacing" textLength="162" x="618" y="440.2285">VaccineSchedulerMapper</text><line style="stroke:#181818;stroke-width:0.5;" x1="590" x2="782" y1="450.5" y2="450.5"/><line style="stroke:#181818;stroke-width:0.5;" x1="590" x2="782" y1="458.5" y2="458.5"/><text fill="#000000" font-family="sans-serif" font-size="14" lengthAdjust="spacing" textLength="172" x="595" y="477.0332">+toDTO(vaccineScheduler)</text></g><!--MD5=[9fe762efc8b9cd0ebfcd4120396959e0]
class SnsUserStore--><g id="elem_SnsUserStore"><rect codeLine="40" fill="#F1F1F1" height="65.6094" id="SnsUserStore" rx="2.5" ry="2.5" style="stroke:#181818;stroke-width:0.5;" width="321" x="1054.5" y="738"/><ellipse cx="1167.25" cy="754" fill="#ADD1B2" rx="11" ry="11" style="stroke:#181818;stroke-width:1.0;"/><path d="M1169.25,750.5 Q1169.4531,750 1169.6875,749.75 Q1169.9219,749.5 1170.1875,749.5 Q1170.6563,749.5 1170.9531,749.7813 Q1171.25,750.0625 1171.25,750.7188 L1171.25,752.2813 Q1171.25,752.9375 1170.9688,753.2188 Q1170.6875,753.5 1170.25,753.5 Q1169.8594,753.5 1169.6094,753.3281 Q1169.3594,753.1563 1169.25,752.7031 Q1169.2031,752.3906 1169.0313,752.2188 Q1168.7188,751.8906 1168.1563,751.7031 Q1167.5938,751.5 1167.0313,751.5 Q1166.3281,751.5 1165.7344,751.7813 Q1165.1563,752.0625 1164.7031,752.6875 Q1164.25,753.3125 1164.25,754.1719 L1164.25,755.0938 Q1164.25,756.125 1165.0938,756.8125 Q1165.9375,757.5 1167.4375,757.5 Q1168.3281,757.5 1168.9531,757.2969 Q1169.3125,757.1875 1169.7188,756.8281 Q1169.9844,756.625 1170.125,756.5625 Q1170.2656,756.5 1170.4375,756.5 Q1170.7656,756.5 1171,756.7656 Q1171.25,757.0156 1171.25,757.375 Q1171.25,757.7188 1170.9063,758.125 Q1170.4063,758.7188 1169.6094,759.0469 Q1168.5625,759.5 1167.2813,759.5 Q1165.7813,759.5 1164.5781,758.9063 Q1163.6094,758.4375 1162.9219,757.4219 Q1162.25,756.4063 1162.25,755.2031 L1162.25,754.1094 Q1162.25,752.8594 1162.8438,751.7656 Q1163.4531,750.6719 1164.5,750.0938 Q1165.5625,749.5 1166.75,749.5 Q1167.4688,749.5 1168.0938,749.75 Q1168.7188,750 1169.25,750.5 Z " fill="#000000"/><text fill="#000000" font-family="sans-serif" font-size="14" lengthAdjust="spacing" textLength="87" x="1187.75" y="759.7285">SnsUserStore</text><line style="stroke:#181818;stroke-width:0.5;" x1="1055.5" x2="1374.5" y1="770" y2="770"/><line style="stroke:#181818;stroke-width:0.5;" x1="1055.5" x2="1374.5" y1="778" y2="778"/><text fill="#000000" font-family="sans-serif" font-size="14" lengthAdjust="spacing" textLength="309" x="1060.5" y="796.5332">+getSnsUserBySnsUserNumber(snsUserNumber)</text></g><!--MD5=[c4593935f45e4a2a0cefc4788932b53f]
class SnsUser--><g id="elem_SnsUser"><rect codeLine="44" fill="#F1F1F1" height="224.0938" id="SnsUser" rx="2.5" ry="2.5" style="stroke:#181818;stroke-width:0.5;" width="243" x="1242.5" y="926"/><ellipse cx="1333.25" cy="942" fill="#ADD1B2" rx="11" ry="11" style="stroke:#181818;stroke-width:1.0;"/><path d="M1335.25,938.5 Q1335.4531,938 1335.6875,937.75 Q1335.9219,937.5 1336.1875,937.5 Q1336.6563,937.5 1336.9531,937.7813 Q1337.25,938.0625 1337.25,938.7188 L1337.25,940.2813 Q1337.25,940.9375 1336.9688,941.2188 Q1336.6875,941.5 1336.25,941.5 Q1335.8594,941.5 1335.6094,941.3281 Q1335.3594,941.1563 1335.25,940.7031 Q1335.2031,940.3906 1335.0313,940.2188 Q1334.7188,939.8906 1334.1563,939.7031 Q1333.5938,939.5 1333.0313,939.5 Q1332.3281,939.5 1331.7344,939.7813 Q1331.1563,940.0625 1330.7031,940.6875 Q1330.25,941.3125 1330.25,942.1719 L1330.25,943.0938 Q1330.25,944.125 1331.0938,944.8125 Q1331.9375,945.5 1333.4375,945.5 Q1334.3281,945.5 1334.9531,945.2969 Q1335.3125,945.1875 1335.7188,944.8281 Q1335.9844,944.625 1336.125,944.5625 Q1336.2656,944.5 1336.4375,944.5 Q1336.7656,944.5 1337,944.7656 Q1337.25,945.0156 1337.25,945.375 Q1337.25,945.7188 1336.9063,946.125 Q1336.4063,946.7188 1335.6094,947.0469 Q1334.5625,947.5 1333.2813,947.5 Q1331.7813,947.5 1330.5781,946.9063 Q1329.6094,946.4375 1328.9219,945.4219 Q1328.25,944.4063 1328.25,943.2031 L1328.25,942.1094 Q1328.25,940.8594 1328.8438,939.7656 Q1329.4531,938.6719 1330.5,938.0938 Q1331.5625,937.5 1332.75,937.5 Q1333.4688,937.5 1334.0938,937.75 Q1334.7188,938 1335.25,938.5 Z " fill="#000000"/><text fill="#000000" font-family="sans-serif" font-size="14" lengthAdjust="spacing" textLength="53" x="1353.75" y="947.7285">SnsUser</text><line style="stroke:#181818;stroke-width:0.5;" x1="1243.5" x2="1484.5" y1="958" y2="958"/><text fill="#000000" font-family="sans-serif" font-size="14" lengthAdjust="spacing" textLength="40" x="1248.5" y="976.5332">-name</text><text fill="#000000" font-family="sans-serif" font-size="14" lengthAdjust="spacing" textLength="38" x="1248.5" y="994.1426">-email</text><text fill="#000000" font-family="sans-serif" font-size="14" lengthAdjust="spacing" textLength="94" x="1248.5" y="1011.752">-phoneNumber</text><text fill="#000000" font-family="sans-serif" font-size="14" lengthAdjust="spacing" textLength="124" x="1248.5" y="1029.3613">-citizenCardNumber</text><text fill="#000000" font-family="sans-serif" font-size="14" lengthAdjust="spacing" textLength="107" x="1248.5" y="1046.9707">-SnsUserNumber</text><text fill="#000000" font-family="sans-serif" font-size="14" lengthAdjust="spacing" textLength="5" x="1248.5" y="1064.5801">-</text><text fill="#000000" font-family="sans-serif" font-size="14" font-weight="bold" lengthAdjust="spacing" textLength="57" x="1253.5" y="1064.5801">address</text><text fill="#000000" font-family="sans-serif" font-size="14" lengthAdjust="spacing" textLength="5" x="1248.5" y="1082.1895">-</text><text fill="#000000" font-family="sans-serif" font-size="14" font-weight="bold" lengthAdjust="spacing" textLength="64" x="1253.5" y="1082.1895">birthdate</text><text fill="#000000" font-family="sans-serif" font-size="14" lengthAdjust="spacing" textLength="5" x="1248.5" y="1099.7988">-</text><text fill="#000000" font-family="sans-serif" font-size="14" font-weight="bold" lengthAdjust="spacing" textLength="78" x="1253.5" y="1099.7988">arrivalTime</text><text fill="#000000" font-family="sans-serif" font-size="14" lengthAdjust="spacing" textLength="5" x="1248.5" y="1117.4082">-</text><text fill="#000000" font-family="sans-serif" font-size="14" font-weight="bold" lengthAdjust="spacing" textLength="51" x="1253.5" y="1117.4082">gender</text><line style="stroke:#181818;stroke-width:0.5;" x1="1243.5" x2="1484.5" y1="1124.4844" y2="1124.4844"/><text fill="#000000" font-family="sans-serif" font-size="14" lengthAdjust="spacing" textLength="231" x="1248.5" y="1143.0176">+setSnsUserArrivalTime(arrivalTime)</text></g><!--MD5=[a6c915bab2c1be2c2abfc2c8139711d3]
class VaccineScheduler--><g id="elem_VaccineScheduler"><rect codeLine="57" fill="#F1F1F1" height="241.7031" id="VaccineScheduler" rx="2.5" ry="2.5" style="stroke:#181818;stroke-width:0.5;" width="352" x="266" y="917"/><ellipse cx="380.75" cy="933" fill="#ADD1B2" rx="11" ry="11" style="stroke:#181818;stroke-width:1.0;"/><path d="M382.75,929.5 Q382.9531,929 383.1875,928.75 Q383.4219,928.5 383.6875,928.5 Q384.1563,928.5 384.4531,928.7813 Q384.75,929.0625 384.75,929.7188 L384.75,931.2813 Q384.75,931.9375 384.4688,932.2188 Q384.1875,932.5 383.75,932.5 Q383.3594,932.5 383.1094,932.3281 Q382.8594,932.1563 382.75,931.7031 Q382.7031,931.3906 382.5313,931.2188 Q382.2188,930.8906 381.6563,930.7031 Q381.0938,930.5 380.5313,930.5 Q379.8281,930.5 379.2344,930.7813 Q378.6563,931.0625 378.2031,931.6875 Q377.75,932.3125 377.75,933.1719 L377.75,934.0938 Q377.75,935.125 378.5938,935.8125 Q379.4375,936.5 380.9375,936.5 Q381.8281,936.5 382.4531,936.2969 Q382.8125,936.1875 383.2188,935.8281 Q383.4844,935.625 383.625,935.5625 Q383.7656,935.5 383.9375,935.5 Q384.2656,935.5 384.5,935.7656 Q384.75,936.0156 384.75,936.375 Q384.75,936.7188 384.4063,937.125 Q383.9063,937.7188 383.1094,938.0469 Q382.0625,938.5 380.7813,938.5 Q379.2813,938.5 378.0781,937.9063 Q377.1094,937.4375 376.4219,936.4219 Q375.75,935.4063 375.75,934.2031 L375.75,933.1094 Q375.75,931.8594 376.3438,930.7656 Q376.9531,929.6719 378,929.0938 Q379.0625,928.5 380.25,928.5 Q380.9688,928.5 381.5938,928.75 Q382.2188,929 382.75,929.5 Z " fill="#000000"/><text fill="#000000" font-family="sans-serif" font-size="14" lengthAdjust="spacing" textLength="114" x="401.25" y="938.7285">VaccineScheduler</text><line style="stroke:#181818;stroke-width:0.5;" x1="267" x2="617" y1="949" y2="949"/><text fill="#000000" font-family="sans-serif" font-size="14" lengthAdjust="spacing" textLength="105" x="272" y="967.5332">-snsUserNumber</text><text fill="#000000" font-family="sans-serif" font-size="14" lengthAdjust="spacing" textLength="85" x="272" y="985.1426">-vaccineType</text><text fill="#000000" font-family="sans-serif" font-size="14" lengthAdjust="spacing" textLength="33" x="272" y="1002.752">-date</text><text fill="#000000" font-family="sans-serif" font-size="14" lengthAdjust="spacing" textLength="31" x="272" y="1020.3613">-time</text><text fill="#000000" font-family="sans-serif" font-size="14" lengthAdjust="spacing" textLength="119" x="272" y="1037.9707">-vaccinationCenter</text><line style="stroke:#181818;stroke-width:0.5;" x1="267" x2="617" y1="1045.0469" y2="1045.0469"/><text fill="#000000" font-family="sans-serif" font-size="14" lengthAdjust="spacing" textLength="208" x="272" y="1063.5801">+validateArrivalTime(arrivalTime)</text><text fill="#000000" font-family="sans-serif" font-size="14" lengthAdjust="spacing" textLength="140" x="272" y="1081.1895">+getSnsUserNumber()</text><text fill="#000000" font-family="sans-serif" font-size="14" lengthAdjust="spacing" textLength="154" x="272" y="1098.7988">+getVaccinationCenter()</text><text fill="#000000" font-family="sans-serif" font-size="14" lengthAdjust="spacing" textLength="99" x="272" y="1116.4082">+getDateTime()</text><text fill="#000000" font-family="sans-serif" font-size="14" lengthAdjust="spacing" textLength="120" x="272" y="1134.0176">+getVaccineType()</text><text fill="#000000" font-family="sans-serif" font-size="14" lengthAdjust="spacing" textLength="340" x="272" y="1151.627">+VaccineScheduler(snsUserNumber, vaccineType, ...)</text></g><!--MD5=[ae42e961faee4afd59d901b0fbb4f2cf]
class VaccineSchedulerDTO--><g id="elem_VaccineSchedulerDTO"><rect codeLine="71" fill="#F1F1F1" height="136.0469" id="VaccineSchedulerDTO" rx="2.5" ry="2.5" style="stroke:#181818;stroke-width:0.5;" width="382" x="495" y="703"/><ellipse cx="609.75" cy="719" fill="#ADD1B2" rx="11" ry="11" style="stroke:#181818;stroke-width:1.0;"/><path d="M611.75,715.5 Q611.9531,715 612.1875,714.75 Q612.4219,714.5 612.6875,714.5 Q613.1563,714.5 613.4531,714.7813 Q613.75,715.0625 613.75,715.7188 L613.75,717.2813 Q613.75,717.9375 613.4688,718.2188 Q613.1875,718.5 612.75,718.5 Q612.3594,718.5 612.1094,718.3281 Q611.8594,718.1563 611.75,717.7031 Q611.7031,717.3906 611.5313,717.2188 Q611.2188,716.8906 610.6563,716.7031 Q610.0938,716.5 609.5313,716.5 Q608.8281,716.5 608.2344,716.7813 Q607.6563,717.0625 607.2031,717.6875 Q606.75,718.3125 606.75,719.1719 L606.75,720.0938 Q606.75,721.125 607.5938,721.8125 Q608.4375,722.5 609.9375,722.5 Q610.8281,722.5 611.4531,722.2969 Q611.8125,722.1875 612.2188,721.8281 Q612.4844,721.625 612.625,721.5625 Q612.7656,721.5 612.9375,721.5 Q613.2656,721.5 613.5,721.7656 Q613.75,722.0156 613.75,722.375 Q613.75,722.7188 613.4063,723.125 Q612.9063,723.7188 612.1094,724.0469 Q611.0625,724.5 609.7813,724.5 Q608.2813,724.5 607.0781,723.9063 Q606.1094,723.4375 605.4219,722.4219 Q604.75,721.4063 604.75,720.2031 L604.75,719.1094 Q604.75,717.8594 605.3438,716.7656 Q605.9531,715.6719 607,715.0938 Q608.0625,714.5 609.25,714.5 Q609.9688,714.5 610.5938,714.75 Q611.2188,715 611.75,715.5 Z " fill="#000000"/><text fill="#000000" font-family="sans-serif" font-size="14" lengthAdjust="spacing" textLength="144" x="630.25" y="724.7285">VaccineSchedulerDTO</text><line style="stroke:#181818;stroke-width:0.5;" x1="496" x2="876" y1="735" y2="735"/><text fill="#000000" font-family="sans-serif" font-size="14" lengthAdjust="spacing" textLength="105" x="501" y="753.5332">-snsUserNumber</text><text fill="#000000" font-family="sans-serif" font-size="14" lengthAdjust="spacing" textLength="85" x="501" y="771.1426">-vaccineType</text><text fill="#000000" font-family="sans-serif" font-size="14" lengthAdjust="spacing" textLength="64" x="501" y="788.752">-dateTime</text><text fill="#000000" font-family="sans-serif" font-size="14" lengthAdjust="spacing" textLength="85" x="501" y="806.3613">-vaccineType</text><line style="stroke:#181818;stroke-width:0.5;" x1="496" x2="876" y1="813.4375" y2="813.4375"/><text fill="#000000" font-family="sans-serif" font-size="14" lengthAdjust="spacing" textLength="370" x="501" y="831.9707">+VaccineSchedulerDTO(snsUserNumber, vaccineType, ...)</text></g><!--MD5=[02e4b9b7573f1156f41e60aa5b4e25a4]
class Company--><g id="elem_Company"><rect codeLine="79" fill="#F1F1F1" height="83.2188" id="Company" rx="2.5" ry="2.5" style="stroke:#181818;stroke-width:0.5;" width="321" x="983.5" y="410"/><ellipse cx="1109.75" cy="426" fill="#ADD1B2" rx="11" ry="11" style="stroke:#181818;stroke-width:1.0;"/><path d="M1111.75,422.5 Q1111.9531,422 1112.1875,421.75 Q1112.4219,421.5 1112.6875,421.5 Q1113.1563,421.5 1113.4531,421.7813 Q1113.75,422.0625 1113.75,422.7188 L1113.75,424.2813 Q1113.75,424.9375 1113.4688,425.2188 Q1113.1875,425.5 1112.75,425.5 Q1112.3594,425.5 1112.1094,425.3281 Q1111.8594,425.1563 1111.75,424.7031 Q1111.7031,424.3906 1111.5313,424.2188 Q1111.2188,423.8906 1110.6563,423.7031 Q1110.0938,423.5 1109.5313,423.5 Q1108.8281,423.5 1108.2344,423.7813 Q1107.6563,424.0625 1107.2031,424.6875 Q1106.75,425.3125 1106.75,426.1719 L1106.75,427.0938 Q1106.75,428.125 1107.5938,428.8125 Q1108.4375,429.5 1109.9375,429.5 Q1110.8281,429.5 1111.4531,429.2969 Q1111.8125,429.1875 1112.2188,428.8281 Q1112.4844,428.625 1112.625,428.5625 Q1112.7656,428.5 1112.9375,428.5 Q1113.2656,428.5 1113.5,428.7656 Q1113.75,429.0156 1113.75,429.375 Q1113.75,429.7188 1113.4063,430.125 Q1112.9063,430.7188 1112.1094,431.0469 Q1111.0625,431.5 1109.7813,431.5 Q1108.2813,431.5 1107.0781,430.9063 Q1106.1094,430.4375 1105.4219,429.4219 Q1104.75,428.4063 1104.75,427.2031 L1104.75,426.1094 Q1104.75,424.8594 1105.3438,423.7656 Q1105.9531,422.6719 1107,422.0938 Q1108.0625,421.5 1109.25,421.5 Q1109.9688,421.5 1110.5938,421.75 Q1111.2188,422 1111.75,422.5 Z " fill="#000000"/><text fill="#000000" font-family="sans-serif" font-size="14" lengthAdjust="spacing" textLength="60" x="1130.25" y="431.7285">Company</text><line style="stroke:#181818;stroke-width:0.5;" x1="984.5" x2="1303.5" y1="442" y2="442"/><text fill="#000000" font-family="sans-serif" font-size="14" lengthAdjust="spacing" textLength="78" x="989.5" y="460.5332">-designation</text><line style="stroke:#181818;stroke-width:0.5;" x1="984.5" x2="1303.5" y1="467.6094" y2="467.6094"/><text fill="#000000" font-family="sans-serif" font-size="14" lengthAdjust="spacing" textLength="309" x="989.5" y="486.1426">+getSnsUserBySnsUserNumber(snsUserNumber)</text></g><!--MD5=[c9841b5ceb74c57e43db7e73a5286257]
link RegisterArrivalOfSnsUserToTakeVaccineUI to RegisterArrivalOfSnsUserToTakeVaccineController--><g id="link_RegisterArrivalOfSnsUserToTakeVaccineUI_RegisterArrivalOfSnsUserToTakeVaccineController"><path codeLine="85" d="M930,55.25 C930,70.55 930,91.24 930,110.57 " fill="none" id="RegisterArrivalOfSnsUserToTakeVaccineUI-to-RegisterArrivalOfSnsUserToTakeVaccineController" style="stroke:#181818;stroke-width:1.0;stroke-dasharray:7.0,7.0;"/><polygon fill="#181818" points="930,115.98,934,106.98,930,110.98,926,106.98,930,115.98" style="stroke:#181818;stroke-width:1.0;"/></g><!--MD5=[f9efd1aa42251116f9ed0d35f28aa775]
link RegisterArrivalOfSnsUserToTakeVaccineController to VaccinationCenter--><g id="link_RegisterArrivalOfSnsUserToTakeVaccineController_VaccinationCenter"><path codeLine="86" d="M752.73,178.15 C612.61,189.18 430.28,210.13 366,247 C352.57,254.7 339.85,264 327.88,274.34 " fill="none" id="RegisterArrivalOfSnsUserToTakeVaccineController-to-VaccinationCenter" style="stroke:#181818;stroke-width:1.0;stroke-dasharray:7.0,7.0;"/><polygon fill="#181818" points="323.85,277.88,333.2517,274.9461,327.6067,274.5804,327.9724,268.9354,323.85,277.88" style="stroke:#181818;stroke-width:1.0;"/></g><!--MD5=[214b56cb0f9c9605d46dfdc706f91406]
link RegisterArrivalOfSnsUserToTakeVaccineController to Company--><g id="link_RegisterArrivalOfSnsUserToTakeVaccineController_Company"><path codeLine="87" d="M967.52,217.12 C1007.75,270.31 1071.05,354.03 1109.9,405.41 " fill="none" id="RegisterArrivalOfSnsUserToTakeVaccineController-to-Company" style="stroke:#181818;stroke-width:1.0;stroke-dasharray:7.0,7.0;"/><polygon fill="#181818" points="1113.12,409.67,1110.8816,400.0789,1110.104,405.682,1104.5009,404.9045,1113.12,409.67" style="stroke:#181818;stroke-width:1.0;"/></g><!--MD5=[93e19358e2d1d2c74287c613a5f8f541]
link RegisterArrivalOfSnsUserToTakeVaccineController to VaccineSchedulerStore--><g id="link_RegisterArrivalOfSnsUserToTakeVaccineController_VaccineSchedulerStore"><path codeLine="88" d="M752.9,195.59 C690.78,211.94 623.48,237.67 571,278 C426.78,388.84 469.84,484.76 354,625 C320.17,665.96 275.18,706.61 242.21,734.4 " fill="none" id="RegisterArrivalOfSnsUserToTakeVaccineController-to-VaccineSchedulerStore" style="stroke:#181818;stroke-width:1.0;stroke-dasharray:7.0,7.0;"/><polygon fill="#181818" points="238.25,737.72,247.7148,734.9966,242.0794,734.505,242.5709,728.8696,238.25,737.72" style="stroke:#181818;stroke-width:1.0;"/></g><!--MD5=[21899ed590b4d1f4c5109aae3607e6af]
link RegisterArrivalOfSnsUserToTakeVaccineController to VaccineSchedulerMapper--><g id="link_RegisterArrivalOfSnsUserToTakeVaccineController_VaccineSchedulerMapper"><path codeLine="89" d="M887.22,217.12 C838.6,273.51 760.41,364.2 717.2,414.31 " fill="none" id="RegisterArrivalOfSnsUserToTakeVaccineController-to-VaccineSchedulerMapper" style="stroke:#181818;stroke-width:1.0;stroke-dasharray:7.0,7.0;"/><polygon fill="#181818" points="713.9,418.14,722.8111,413.9457,717.1692,414.3568,716.7581,408.715,713.9,418.14" style="stroke:#181818;stroke-width:1.0;"/></g><!--MD5=[539da393a1438d1da32de7e8eda746ec]
link RegisterArrivalOfSnsUserToTakeVaccineController to VaccineScheduler--><g id="link_RegisterArrivalOfSnsUserToTakeVaccineController_VaccineScheduler"><path codeLine="90" d="M933.86,217.44 C943.55,355.52 963.38,738.83 894,839 C831.94,928.6 719.93,978.05 622.94,1005.12 " fill="none" id="RegisterArrivalOfSnsUserToTakeVaccineController-to-VaccineScheduler" style="stroke:#181818;stroke-width:1.0;stroke-dasharray:7.0,7.0;"/><polygon fill="#181818" points="618.04,1006.47,627.7798,1007.9317,622.8598,1005.1399,625.6516,1000.2199,618.04,1006.47" style="stroke:#181818;stroke-width:1.0;"/></g><!--MD5=[1809f7f4e5f56ed7e2e6c23a2db256d5]
link RegisterArrivalOfSnsUserToTakeVaccineController to SnsUserStore--><g id="link_RegisterArrivalOfSnsUserToTakeVaccineController_SnsUserStore"><path codeLine="91" d="M1107.12,196.02 C1197.83,214.62 1294.84,242.13 1322,278 C1415.09,400.96 1370.2,478.5 1322,625 C1308.21,666.92 1277.13,706.67 1252,733.91 " fill="none" id="RegisterArrivalOfSnsUserToTakeVaccineController-to-SnsUserStore" style="stroke:#181818;stroke-width:1.0;stroke-dasharray:7.0,7.0;"/><polygon fill="#181818" points="1248.34,737.84,1257.3976,733.9721,1251.7444,734.1781,1251.5385,728.525,1248.34,737.84" style="stroke:#181818;stroke-width:1.0;"/></g><!--MD5=[b7c9bc83b91f2a2212771ea7f77d94e9]
link RegisterArrivalOfSnsUserToTakeVaccineController to SnsUser--><g id="link_RegisterArrivalOfSnsUserToTakeVaccineController_SnsUser"><path codeLine="92" d="M1107.14,187.35 C1217.52,204.02 1344.22,232.57 1375,278 C1506.07,471.47 1450.28,761.08 1403.62,920.82 " fill="none" id="RegisterArrivalOfSnsUserToTakeVaccineController-to-SnsUser" style="stroke:#181818;stroke-width:1.0;stroke-dasharray:7.0,7.0;"/><polygon fill="#181818" points="1402.1,925.98,1408.4806,918.4775,1403.5131,921.1839,1400.8068,916.2164,1402.1,925.98" style="stroke:#181818;stroke-width:1.0;"/></g><!--MD5=[add09fab71ae1df57f5ef21c150e9e3b]
link VaccinationCenter to VaccineSchedulerStore--><g id="link_VaccinationCenter_VaccineSchedulerStore"><path codeLine="94" d="M201.19,625.19 C200.3,665.82 199.43,705.23 198.82,732.65 " fill="none" id="VaccinationCenter-to-VaccineSchedulerStore" style="stroke:#181818;stroke-width:1.0;"/><polygon fill="#181818" points="198.71,737.97,202.9146,729.0638,198.8243,732.9713,194.9167,728.8809,198.71,737.97" style="stroke:#181818;stroke-width:1.0;"/><text fill="#000000" font-family="sans-serif" font-size="13" lengthAdjust="spacing" textLength="21" x="202" y="669.4951">use</text><text fill="#000000" font-family="sans-serif" font-size="13" lengthAdjust="spacing" textLength="7" x="193.8588" y="646.9178">1</text><text fill="#000000" font-family="sans-serif" font-size="13" lengthAdjust="spacing" textLength="7" x="191.1346" y="727.0792">1</text></g><!--MD5=[5492a4dc5ecc4c84a06bc522746c726e]
link VaccineSchedulerStore to VaccineScheduler--><g id="link_VaccineSchedulerStore_VaccineScheduler"><path codeLine="95" d="M227.68,804.23 C252.9,831.62 290.8,872.79 327.75,912.91 " fill="none" id="VaccineSchedulerStore-to-VaccineScheduler" style="stroke:#181818;stroke-width:1.0;"/><polygon fill="#181818" points="331.32,916.79,328.1592,907.4621,327.9304,913.1143,322.2782,912.8855,331.32,916.79" style="stroke:#181818;stroke-width:1.0;"/><text fill="#000000" font-family="sans-serif" font-size="13" lengthAdjust="spacing" textLength="21" x="300" y="883.4951">has</text><text fill="#000000" font-family="sans-serif" font-size="13" lengthAdjust="spacing" textLength="7" x="225.3433" y="825.1353">1</text><text fill="#000000" font-family="sans-serif" font-size="13" lengthAdjust="spacing" textLength="5" x="319.0694" y="906.0284">*</text></g><!--MD5=[73578e536d3cad610b43d7274c432f2a]
link Company to SnsUserStore--><g id="link_Company_SnsUserStore"><path codeLine="97" d="M1153.06,493.03 C1166.95,555.15 1193.3,672.97 1206.71,732.93 " fill="none" id="Company-to-SnsUserStore" style="stroke:#181818;stroke-width:1.0;"/><polygon fill="#181818" points="1207.81,737.85,1209.7624,728.1966,1206.7253,732.9691,1201.9529,729.932,1207.81,737.85" style="stroke:#181818;stroke-width:1.0;"/><text fill="#000000" font-family="sans-serif" font-size="13" lengthAdjust="spacing" textLength="21" x="1193" y="669.4951">use</text><text fill="#000000" font-family="sans-serif" font-size="13" lengthAdjust="spacing" textLength="7" x="1146.9809" y="514.7395">1</text><text fill="#000000" font-family="sans-serif" font-size="13" lengthAdjust="spacing" textLength="7" x="1198.6052" y="726.9345">1</text></g><!--MD5=[36ff57e04b445edb1aaa7eeb03a93ced]
link SnsUserStore to SnsUser--><g id="link_SnsUserStore_SnsUser"><path codeLine="98" d="M1233.12,804.23 C1249.62,833.57 1274.99,878.7 1299.03,921.44 " fill="none" id="SnsUserStore-to-SnsUser" style="stroke:#181818;stroke-width:1.0;"/><polygon fill="#181818" points="1301.5,925.84,1300.5633,916.0358,1299.0439,921.4848,1293.5949,919.9655,1301.5,925.84" style="stroke:#181818;stroke-width:1.0;"/><text fill="#000000" font-family="sans-serif" font-size="13" lengthAdjust="spacing" textLength="21" x="1277" y="883.4951">has</text><text fill="#000000" font-family="sans-serif" font-size="13" lengthAdjust="spacing" textLength="7" x="1228.7242" y="825.1353">1</text><text fill="#000000" font-family="sans-serif" font-size="13" lengthAdjust="spacing" textLength="5" x="1292.1328" y="915.2705">*</text></g><!--MD5=[4de4dc069bc04892ec08b46eee1d380e]
link VaccineSchedulerMapper to VaccineSchedulerDTO--><g id="link_VaccineSchedulerMapper_VaccineSchedulerDTO"><path codeLine="100" d="M686,484.69 C686,534.32 686,630.78 686,697.72 " fill="none" id="VaccineSchedulerMapper-to-VaccineSchedulerDTO" style="stroke:#181818;stroke-width:1.0;stroke-dasharray:7.0,7.0;"/><polygon fill="#181818" points="686,702.89,690,693.89,686,697.89,682,693.89,686,702.89" style="stroke:#181818;stroke-width:1.0;"/></g><!--MD5=[3987eb05b1b95fe5749649f312eb70f1]
link VaccineSchedulerMapper to VaccineScheduler--><g id="link_VaccineSchedulerMapper_VaccineScheduler"><path codeLine="101" d="M647.64,484.82 C598.61,528.64 515.48,611.96 477,703 C449.35,768.43 440.09,847.22 437.98,911.84 " fill="none" id="VaccineSchedulerMapper-to-VaccineScheduler" style="stroke:#181818;stroke-width:1.0;stroke-dasharray:7.0,7.0;"/><polygon fill="#181818" points="437.83,916.87,442.0854,907.9879,437.9728,911.872,434.0887,907.7594,437.83,916.87" style="stroke:#181818;stroke-width:1.0;"/></g><!--MD5=[bbe41336132a147b922a4462c919a401]
@startuml
skinparam classAttributeIconSize 0

class RegisterArrivalOfSnsUserToTakeVaccineController {
+getVaccineScheduler(snsUserNumber)
+setSnsUserArrivalTime(arrivalTime)
+addSnsUserToWaitingList(snsUser)
}

class RegisterArrivalOfSnsUserToTakeVaccineUI {
}

class "VaccinationCenter" {
  -name
  -address
  -phoneNumber
  -emailAddress
  -faxNumber
  -websiteAddress
  -openHour
  -closeHour
  -slotDuration
  -maximumNumberOfVaccinesPerSlot
  -vaccinationCenterType
  -**designation**
  -waitingList
  +getVaccineSchedulerStore()
  +addSnsUserToWaitingList(snsUser)
  +validateSnsUserInWaitingList(snsUser)
  +addToWaitingList(snsUser)
}

class "VaccineSchedulerStore"{
+getVaccineSchedulerBySnsUserNumber(snsUserNumber)
}

class "VaccineSchedulerMapper"{
+toDTO(vaccineScheduler)
}

class SnsUserStore {
+getSnsUserBySnsUserNumber(snsUserNumber)
}

class SnsUser {
 -name
 -email
 -phoneNumber
 -citizenCardNumber
 -SnsUserNumber
 -**address**
 -**birthdate**
 -**arrivalTime**
 -**gender**
 +setSnsUserArrivalTime(arrivalTime)
}

class "VaccineScheduler"{
-snsUserNumber
-vaccineType
-date
-time
-vaccinationCenter
+validateArrivalTime(arrivalTime)
+getSnsUserNumber()
+getVaccinationCenter()
+getDateTime()
+getVaccineType()
+VaccineScheduler(snsUserNumber, vaccineType, ...)
}

class "VaccineSchedulerDTO"{
-snsUserNumber
-vaccineType
-dateTime
-vaccineType
+VaccineSchedulerDTO(snsUserNumber, vaccineType, ...)
}

class Company {
  -designation
  +getSnsUserBySnsUserNumber(snsUserNumber)
}


RegisterArrivalOfSnsUserToTakeVaccineUI ..> RegisterArrivalOfSnsUserToTakeVaccineController
RegisterArrivalOfSnsUserToTakeVaccineController ..> VaccinationCenter
RegisterArrivalOfSnsUserToTakeVaccineController ..> Company
RegisterArrivalOfSnsUserToTakeVaccineController ..> VaccineSchedulerStore
RegisterArrivalOfSnsUserToTakeVaccineController ..> VaccineSchedulerMapper
RegisterArrivalOfSnsUserToTakeVaccineController ..> VaccineScheduler
RegisterArrivalOfSnsUserToTakeVaccineController ..> SnsUserStore
RegisterArrivalOfSnsUserToTakeVaccineController ..> SnsUser

VaccinationCenter "1" - -> "1" VaccineSchedulerStore : use
VaccineSchedulerStore "1" - -> "*" VaccineScheduler : has

Company "1" - -> "1" SnsUserStore : use
SnsUserStore "1" - -> "*" SnsUser : has

VaccineSchedulerMapper ..> VaccineSchedulerDTO
VaccineSchedulerMapper ..> VaccineScheduler


@enduml

PlantUML version 1.2022.5(Sat Apr 30 11:55:52 BST 2022)
(GPL source distribution)
Java Runtime: OpenJDK Runtime Environment
JVM: OpenJDK 64-Bit Server VM
Default Encoding: Cp1252
Language: pt
Country: PT
--></g></svg>